<svg version="1.1" id="Layer_1" xmlns="http://www.w3.org/2000/svg" x="0" y="0" viewBox="0 0 1000 380" xml:space="preserve" enable-background="new 0 0 1000 380"><style>.st1{fill:#ffffff54}</style><g id="Page-1"><g id="geekbot-pattern-dark"><defs><filter id="Adobe_OpacityMaskFilter" filterUnits="userSpaceOnUse" x="-53.1" y="-85.4" width="1109.4" height="537.4"><feColorMatrix values="1 0 0 0 0 0 1 0 0 0 0 0 1 0 0 0 0 0 1 0"/></filter></defs><mask maskUnits="userSpaceOnUse" x="-53.1" y="-85.4" width="1109.4" height="537.4" id="mask-2"><g filter="url(#Adobe_OpacityMaskFilter)"><path id="path-1" class="st1" d="M0 0h1000v380H0z"/></g></mask><g id="Group" mask="url(#mask-2)"><g id="Shape"><path class="st1" d="M1457.3 648.6c-1.6 1.6-2.9 3.1-4.1 4.6-10-1.9-18.5 4-21.8 8.6-1.2 1.6-1.5 2.8-1.1 3.6.6 1.1 1.9 1.1 3.7 1.1 2.6 0 6.4 0 11.2 2.7-.8 4.2-.2 7.2.2 8.5l-7.3 6.5c-2.2-5.4-7.5-9.1-13.4-9.1-2.3 0-4.5.5-6.5 1.6-3.3-3.7-8.1-6-13.2-6-9.7 0-17.7 7.9-17.7 17.7 0 1.8.3 3.5.8 5.1-6 4.3-9.7 11.4-9.7 19 0 13 10.5 23.5 23.5 23.5.7 0 1.4 0 2.1-.1.6 8.9 8 16 17.1 16 5 0 9.7-2.2 13-6 2.2.8 4.5 1.3 6.9 1.3 10.6 0 19.2-8.6 19.2-19.2 0-5.6-2.5-10.7-6.4-14.2 2.2-2.5 3.4-5.6 3.4-8.9 0-3.1-1.1-6.1-3-8.4l4.7-5.3c.8.2 2.3.6 4.4.6 1.2 0 2.5-.1 4.1-.4 2.7 4.8 2.7 8.7 2.7 11.2 0 1.8 0 3.1 1.1 3.7.2.1.5.2.8.2.7 0 1.7-.4 2.8-1.3 4.6-3.4 10.5-11.9 8.6-21.9 1.5-1.2 3-2.6 4.6-4.1 16.2-16.2 28.1-50.8 24.3-54.7-4.2-4-38.8 7.9-55 24.1zm-23.4 15.8h-1.8c.3-.8 1.7-2.9 4.5-5.1 2.7-2.1 8.2-5.3 15.2-4.3-3.4 4.6-5.2 8.7-6.2 12.1-5-2.7-9.1-2.7-11.7-2.7zm24.1 63.5c0 9.5-7.7 17.2-17.2 17.2-3.7 0-7.3-1.2-10.3-3.4-.4-.3-1.1-.2-1.4.2-.3.4-.2 1.1.2 1.4.8.6 1.7 1.2 2.7 1.7-2.9 3.1-6.8 4.8-11 4.8-8.1 0-14.6-6.3-15.1-14.3 1.9-.3 3.8-.9 5.6-1.8.5-.2.7-.8.5-1.3-.2-.5-.8-.7-1.3-.5-2.8 1.3-5.8 1.9-8.9 1.9-11.9 0-21.5-9.6-21.5-21.5 0-9.2 5.8-17.3 14.5-20.3.5-.2.8-.8.6-1.3-.2-.5-.8-.8-1.3-.6-1.5.5-3 1.2-4.4 2.1-.3-1.3-.5-2.6-.5-4 0-8.6 7-15.7 15.7-15.7 5.5 0 10.7 3 13.5 7.8.3.5.9.6 1.4.4.5-.3.6-.9.4-1.4-.2-.4-.5-.8-.8-1.2 1.6-.8 3.4-1.2 5.3-1.2 5.4 0 10.1 3.5 11.8 8.5l-15.3 13.6c-.4-.6-.8-1.1-1.2-1.6 1.7-2.8 2.6-5.9 2.6-9.2 0-.6-.4-1-1-1s-1 .4-1 1c0 2.7-.7 5.3-2 7.7l-1.1-1.1c-.4-.4-1-.3-1.4.1-.4.4-.3 1 .1 1.4 3.1 2.8 5.4 6.4 6.4 10.4.1.4.5.7 1 .7h.3c.5-.1.8-.7.7-1.2-.5-1.9-1.3-3.7-2.2-5.4l24.3-21.5 3 3c-.7 1.1-1.2 2.1-1.4 3-.2 1.2.3 1.9.7 2.3.5.5 1.1.7 1.8.7 1 0 2.2-.5 3.5-1.4l3 3-16.7 18.9c-2.1.1-4.2.4-6.1 1.1-.5.2-.8.8-.6 1.3.2.5.8.8 1.3.6 1.9-.7 3.9-1 5.9-1 9.2 0 16.9 7.7 16.9 17.1zm-4.4-43.1l-.1.1c-1.2.9-2.1 1.4-2.9 1.4-.2 0-.3-.1-.4-.1-.1-.1-.2-.2-.1-.6.1-.7.6-1.6 1.4-2.7 0 0 0-.1.1-.1 3.8-5 13.7-12.8 16.3-14.3-1.6 2.7-9.3 12.5-14.3 16.3zm1.4 20c0 2.9-1.1 5.6-3 7.7-2.6-1.9-5.7-3.2-9.1-3.6l9.8-11.1c1.5 2 2.3 4.5 2.3 7zm22-5.1c-2.2 2.8-4.3 4.2-5.1 4.5-.1-.4-.1-1.2-.1-1.8 0-2.5 0-6.6-2.6-11.7 3.4-.9 7.6-2.8 12.1-6.2 1 7-2.2 12.5-4.3 15.2zm9.3-22.1c-14.7 14.7-25.8 11.8-27.3 11.4l-3.3-3.3c5.9-4.9 13.3-15 14-16.3.3-.5 1.1-2 .2-2.9-.2-.2-.5-.4-1-.4s-1.1.2-1.8.6c-1.7.9-11.5 8.2-16.3 14l-3.3-3.3c-.5-1.5-3.3-12.7 11.4-27.3 16.7-16.7 49.3-26.5 51.9-24.3 2 2.6-7.8 35.1-24.5 51.8z" transform="translate(-646 -329)"/><path class="st1" d="M1483.9 643.7c-2.3 0-4.5.9-6.2 2.6-1.7 1.7-2.6 3.9-2.6 6.2 0 2.3.9 4.5 2.6 6.2 1.7 1.7 3.9 2.6 6.2 2.6s4.5-.9 6.2-2.6c1.7-1.7 2.6-3.9 2.6-6.2s-.9-4.5-2.6-6.2c-1.7-1.7-3.9-2.6-6.2-2.6zm4.7 13.5c-1.3 1.3-3 2-4.8 2s-3.5-.7-4.8-2-2-3-2-4.8c0-1.8.7-3.5 2-4.8s3-2 4.8-2 3.5.7 4.8 2c2.7 2.7 2.7 7 0 9.6zM1302 646.7c-.9 0-1.8.1-2.8.2-10.3 1.5-17.5 11.1-16 21.4 1.4 9.2 9.4 16.2 18.7 16.2.9 0 1.8-.1 2.8-.2 5-.7 9.4-3.4 12.4-7.4s4.3-9 3.5-14c-1.3-9.3-9.3-16.2-18.6-16.2zm13.5 29c-2.7 3.6-6.6 6-11.1 6.6-.8.1-1.7.2-2.5.2-8.3 0-15.5-6.2-16.7-14.4-1.4-9.2 5-17.8 14.3-19.2.8-.1 1.7-.2 2.5-.2 8.3 0 15.5 6.2 16.7 14.4.7 4.5-.5 9-3.2 12.6z" transform="translate(-646 -329)"/><path class="st1" d="M1311.4 667.8c-.5-.2-1.1 0-1.3.5-1.3 2.6-3.9 4.5-7 4.9-3.1.5-6.2-.6-8.1-2.7-.4-.4-1-.4-1.4-.1-.4.4-.4 1-.1 1.4 2 2.2 5 3.5 8.1 3.5.6 0 1.2 0 1.8-.1 3.8-.6 7-2.8 8.5-6.1.2-.5 0-1.1-.5-1.3zM1293.9 666.7c.6 0 1-.5.9-1.1 0-.1-.1-2.6 1.9-2.9 1.5-.2 1.9 2.3 1.9 2.3.1.5.6.9 1.1.8.5-.1.9-.6.8-1.1-.2-1.5-1.4-4.4-4.1-4-3 .4-3.7 3.5-3.6 5 .1.6.5 1 1.1 1-.1 0 0 0 0 0zM1304.1 665.2h.1c.5-.1.9-.6.9-1.1 0 0-.3-2.5 1.1-2.7 1.9-.3 2.6 2 2.6 2.3.1.5.7.9 1.2.7.5-.1.9-.7.7-1.2-.4-1.5-1.8-4.3-4.9-3.8-2.7.4-3 3.4-2.8 5 .2.5.6.8 1.1.8zM1583.3 684.3c-1.9 0-3.6.7-4.9 2l-16 16c-6.3 6.3-6.3 6.3-10.8 6.7-3.7 0-7.2 1.5-9.9 4.1-4.3 4.3-5.3 10.8-2.6 16.2.1.3.4.5.7.5.3.1.6-.1.9-.3l9.3-9.3c.1-.1.3-.2.6-.2l3.1.6c.1 0 .2.1.2.2l.6 3.1c0 .2-.1.5-.2.6l-9.3 9.3c-.2.2-.3.5-.3.9.1.3.2.6.5.7 1.9 1 4.1 1.5 6.3 1.5 3.7 0 7.2-1.5 9.9-4.1 2.6-2.6 4.1-6.2 4.1-9.8.4-4.6.4-4.6 6.7-10.9l16-16c1.3-1.3 2-3.1 2-4.9 0-1.9-.7-3.6-2-4.9-1.3-1.3-3.1-2-4.9-2zm3.5 10.4l-16 16c-6.5 6.5-6.8 6.8-7.3 12.2 0 3.2-1.2 6.2-3.5 8.5s-5.3 3.5-8.4 3.5c-1.4 0-2.8-.2-4.1-.7l8.2-8.2c.6-.6.9-1.6.7-2.4l-.6-3.1c-.2-.9-.9-1.7-1.8-1.8l-3.1-.6c-.8-.1-1.8.2-2.4.7l-8.2 8.2c-1.6-4.3-.6-9.2 2.8-12.6 2.3-2.3 5.3-3.5 8.5-3.5h.1c5.3-.5 5.6-.8 12.1-7.3l16-16c.9-.9 2.2-1.4 3.5-1.4 1.3 0 2.6.5 3.5 1.4.9.9 1.4 2.2 1.4 3.5s-.5 2.7-1.4 3.6z" transform="translate(-646 -329)"/><path class="st1" d="M1580.7 689.4l-22.4 22.4c-.6.6-.9 1.4-.9 2.2 0 .8.3 1.6.9 2.2.6.6 1.4.9 2.2.9.8 0 1.6-.3 2.2-.9l22.4-22.4c1.2-1.2 1.2-3.2 0-4.4-1.2-1.1-3.2-1.1-4.4 0zm3 3l-22.4 22.4c-.4.4-1.1.4-1.5 0-.2-.2-.3-.5-.3-.8s.1-.6.3-.8l22.4-22.4c.2-.2.5-.3.8-.3s.6.1.8.3c.3.5.3 1.2-.1 1.6zM1155.3 595.4c.6.1 1-.4 1.1-.9 1-11.2-7.4-21.2-18.6-22.1l-19.2-1.7c-11.2-1-21.2 7.4-22.1 18.6-.4 4.8.9 9.5 3.6 13.5-1.4 1.8-3.4 2.8-6.2 2.9-.4 0-.8.3-.9.7-.1.4 0 .8.4 1.1 4.8 3.5 10.5 3.1 14.1 1.7 2.4 1.2 4.9 2 7.6 2.2l10.9.9h.1c.5 0 1-.4 1-.9 0-.6-.4-1-.9-1.1l-10.9-.9c-2.6-.2-5-1-7.3-2.2-.3-.1-.6-.2-.9 0-2.5 1.1-6.5 1.6-10.2 0 2.3-.7 4-2 5.3-3.9.2-.4.2-.8 0-1.1-2.7-3.6-4-8.1-3.7-12.7.9-10.1 9.8-17.7 20-16.8l19.2 1.7c10.1.9 17.7 9.8 16.8 20-.2.5.2.9.8 1z" transform="translate(-646 -329)"/><path class="st1" d="M1114.5 586.5c-2.4-.2-4.5 1.6-4.7 3.9-.2 2.4 1.6 4.5 3.9 4.7h.4c2.2 0 4.1-1.7 4.3-3.9.1-1.1-.3-2.3-1-3.1-.7-.9-1.8-1.5-2.9-1.6zm-.6 6.6c-1.3-.1-2.2-1.2-2.1-2.5.1-1.2 1.1-2.1 2.3-2.1h.2c.6.1 1.2.3 1.6.8.4.5.6 1.1.5 1.7-.1 1.3-1.2 2.2-2.5 2.1zM1122.1 591.5c-.1 1.1.3 2.3 1 3.1.7.9 1.8 1.4 2.9 1.5h.4c2.2 0 4.1-1.7 4.3-3.9.2-2.4-1.6-4.5-3.9-4.7-2.4-.1-4.5 1.7-4.7 4zm6.6.6c-.1 1.3-1.2 2.2-2.5 2.1-.6-.1-1.2-.3-1.6-.8-.4-.5-.6-1.1-.5-1.7.1-1.2 1.1-2.1 2.3-2.1h.2c.6.1 1.2.3 1.6.8.4.5.5 1.1.5 1.7zM1134.4 592.6c-.2 2.4 1.6 4.5 3.9 4.7h.4c2.2 0 4.1-1.7 4.3-3.9.2-2.4-1.6-4.5-3.9-4.7-2.4-.2-4.5 1.5-4.7 3.9zm6.6.6c-.1 1.2-1.2 2.2-2.5 2.1-1.3-.1-2.2-1.2-2.1-2.5.1-1.2 1.1-2.1 2.3-2.1h.2c1.3.1 2.2 1.2 2.1 2.5zM1153.2 616c-.4-.4-1-.5-1.4-.1s-.5 1-.1 1.4l6.2 7.4-7.4 6.2c-.4.4-.5 1-.1 1.4.2.2.5.4.8.4.2 0 .5-.1.6-.2l8.1-6.8c.2-.2.3-.4.4-.7 0-.3-.1-.5-.2-.7l-6.9-8.3zM1175.9 632.7l-11.9-1c-.6-.1-1 .4-1.1.9 0 .5.4 1 .9 1.1l11.9 1h.1c.5 0 1-.4 1-.9s-.4-1-.9-1.1z" transform="translate(-646 -329)"/><path class="st1" d="M1193.9 653.3c2.7 0 5.4-.6 7.9-1.8.4-.2.6-.6.6-1s-.4-.8-.8-.9c-3.6-.8-6-2.5-7.3-5.3 4.3-4.3 7-9.9 7.5-15.9.6-6.8-1.5-13.4-5.9-18.6-4.4-5.2-10.5-8.4-17.3-9l-24.2-2.1c-.7-.1-1.5-.1-2.2-.1-13.1 0-24.2 10.2-25.4 23.3-.6 6.8 1.5 13.4 5.9 18.6 4.4 5.2 10.5 8.4 17.3 9l24.2 2.1c3.4.3 6.7-.1 9.9-1.1 1.5 1 5.1 2.8 9.8 2.8zm-9.8-4.9c-.1 0-.2 0-.3.1-3.1 1.1-6.3 1.4-9.6 1.2l-24.2-2.1c-6.3-.5-11.9-3.5-16-8.3-4-4.8-6-10.9-5.4-17.2 1-12 11.3-21.5 23.4-21.5.7 0 1.4 0 2.1.1l24.2 2.1c6.3.5 11.9 3.5 16 8.3 4 4.8 6 10.9 5.4 17.2-.5 5.8-3.1 11.1-7.4 15.1-.3.3-.4.7-.2 1.1 1.2 2.8 3.3 4.9 6.2 6.2-1.4.4-2.9.6-4.4.6-4.7 0-8.2-2.1-9.2-2.7-.2-.1-.4-.2-.6-.2zM1254.3 723.7c-.1-.5-.6-.8-1-.8l-5.7.3c-.5-.9-1.1-1.7-1.8-2.5l2-5.5c.2-.5 0-1-.4-1.2l-7.8-4.6c-.4-.2-.9-.2-1.3.2l-3.8 4.2c-1-.2-2-.4-3-.5l-2.5-5.3c-.2-.4-.7-.7-1.2-.5l-8.8 2.2c-.5.1-.8.5-.8 1l.3 5.7c-.9.5-1.7 1.1-2.5 1.8l-5.5-2c-.5-.2-1 0-1.2.4l-4.6 7.8c-.2.4-.2.9.2 1.3l4.2 3.8c-.2 1-.4 2-.5 3l-5.3 2.5c-.4.2-.7.7-.5 1.2l2.2 8.8c.1.5.6.8 1 .8l5.7-.3c.5.9 1.1 1.7 1.8 2.5l-2 5.5c-.2.5 0 1 .4 1.2l7.8 4.6c.4.2.9.2 1.3-.2l3.8-4.2c1 .2 2 .4 3 .5l2.5 5.3c.2.4.5.6.9.6h.2l8.8-2.2c.5-.1.8-.5.8-1l-.3-5.7c.9-.5 1.7-1.1 2.5-1.8l5.5 2c.4.2 1 0 1.2-.4l4.6-7.8c.2-.4.2-.9-.2-1.3l-4.2-3.8c.2-1 .4-2 .5-3l5.3-2.5c.4-.2.7-.7.5-1.2l-2.1-8.9zm-5 10.8c-.3.2-.6.5-.6.9-.1 1.3-.3 2.6-.6 3.8-.1.4 0 .8.3 1l4.1 3.6-3.8 6.3-5.2-1.9c-.3-.1-.7-.1-1 .2-1 .9-2 1.6-3.1 2.3-.3.2-.5.5-.5.9l.3 5.4-7.1 1.8-2.4-5c-.2-.3-.5-.6-.9-.6-1.3-.1-2.6-.3-3.8-.6h-.3c-.3 0-.6.1-.7.3l-3.6 4.1-6.3-3.8 1.9-5.2c.1-.3.1-.7-.2-1-.9-.9-1.6-2-2.3-3.1-.2-.3-.5-.5-.9-.5l-5.4.3-1.8-7.1 5-2.4c.3-.2.6-.5.6-.9.1-1.3.3-2.6.6-3.8.1-.4 0-.8-.3-1l-4.1-3.6 3.8-6.3 5.2 1.9c.3.1.7.1 1-.2 1-.9 2-1.6 3.1-2.3.3-.2.5-.5.5-.9l-.3-5.4 7.1-1.8 2.4 5c.2.3.5.6.9.6 1.3.1 2.6.3 3.8.6.4.1.8 0 1-.3l3.6-4.1 6.3 3.8-1.9 5.2c-.1.3-.1.7.2 1 .9 1 1.6 2 2.3 3.1.2.3.6.5.9.5l5.4-.3 1.8 7.1-5 2.4zM1056.7 702.4c1.1-.2 2.1-.8 2.8-1.8.7-1 .9-2.1.7-3.3-.4-2.3-2.6-4-5-3.5-2.4.4-3.9 2.7-3.5 5 .4 2.1 2.2 3.6 4.3 3.6.1.1.4 0 .7 0zm-3.1-3.9c-.2-1.3.6-2.5 1.9-2.7h.4c1.1 0 2.1.8 2.3 1.9.1.6 0 1.2-.4 1.8s-.9.9-1.5 1c-1.3.2-2.5-.7-2.7-2zM1091.9 691.8c-.1-.5-.6-.9-1.2-.8l-25.4 4.5c-.5.1-.9.6-.8 1.2.1.5.5.8 1 .8h.2l25.4-4.5c.5-.2.9-.7.8-1.2zM1058.7 714.2c2.4-.4 3.9-2.7 3.5-5-.4-2.3-2.6-4-5-3.5-1.1.2-2.1.8-2.8 1.8-.7 1-.9 2.1-.7 3.3.4 2.1 2.2 3.6 4.3 3.6.2-.1.5-.1.7-.2zm-3-3.9c-.1-.6 0-1.2.4-1.8.4-.5.9-.9 1.5-1h.4c1.1 0 2.1.8 2.3 1.9.2 1.3-.6 2.5-1.9 2.7-1.3.4-2.5-.5-2.7-1.8zM1094 703.6c-.1-.5-.6-.9-1.2-.8l-25.4 4.5c-.5.1-.9.6-.8 1.2.1.5.5.8 1 .8h.2l25.4-4.5c.5-.2.9-.7.8-1.2zM1201 496.4l49.5 9.8c.2 0 .4.1.5.1 1.3 0 2.5-1 2.8-2.3l.6-3.3c.1-.5-.2-1.1-.8-1.2l-.5-.1.4-2.2.5.1h.2c.5 0 .9-.3 1-.8l5.8-29c.1-.3 0-.5-.1-.8-.1-.2-.4-.4-.6-.4l-5-1 .9-4.5c1.1-5.7 0-11.6-3.3-16.4-3.3-4.9-8.2-8.2-13.9-9.3-11.8-2.3-23.4 5.4-25.7 17.2l-.9 4.5-5-1c-.5-.1-1.1.2-1.2.8l-5.8 29c-.1.3 0 .5.1.8s.4.4.6.4l.5.1-.4 2.2-.5-.1c-.3-.1-.5 0-.8.1-.2.1-.4.4-.4.6l-.6 3.3c-.4 1.6.6 3.1 2.1 3.4zm14.1-43.7c2.1-10.8 12.6-17.8 23.4-15.7 5.2 1 9.7 4 12.7 8.5 3 4.4 4 9.7 3 14.9l-.9 4.5-4.4-.9.9-4.5c1.7-8.3-3.8-16.5-12.1-18.1-4-.8-8.1 0-11.6 2.3-3.4 2.3-5.8 5.8-6.6 9.8l-.9 4.5-4.4-.9.9-4.4zm5.4 5.8l.9-4.5c.7-3.5 2.7-6.5 5.7-8.5s6.6-2.7 10.1-2c7.3 1.4 12 8.5 10.6 15.8l-.9 4.5-26.4-5.3zm-12.7-.5l5 1 6.4 1.3 28.3 5.6 6.4 1.3 5 1-5.4 27.1-51.1-10.1 5.4-27.2zm-4.8 31.5l.4-2.2 36.8 7.3 11.3 2.2-.4 2.2-24.1-4.8-24-4.7zm-1.8 1.7l.5.1 50.1 9.9.5.1-.5 2.3c-.1.4-.5.7-1 .6l-49.5-9.8c-.4-.1-.7-.5-.6-1l.5-2.2z" transform="translate(-646 -329)"/><path class="st1" d="M1232.5 467.1c-.4-.1-.8-.1-1.2-.1-3 0-5.6 2.1-6.2 5.1-.4 1.9.1 3.9 1.4 5.4l-2.6 6.5c-.1.3-.1.6.1.8.1.3.4.4.7.5l8.1 1.6h.2c.2 0 .4-.1.6-.2.2-.2.4-.5.4-.8l.1-7c1.7-.9 3-2.5 3.4-4.4.3-1.7 0-3.3-.9-4.7-1-1.5-2.4-2.4-4.1-2.7zm3 7c-.3 1.5-1.3 2.7-2.7 3.2-.4.1-.6.5-.6.9l-.1 6.5-5.8-1.1 2.4-6c.1-.4 0-.8-.3-1.1-1.1-1-1.6-2.5-1.3-4 .4-2 2.2-3.5 4.2-3.5.3 0 .6 0 .8.1 1.1.2 2.1.9 2.7 1.8.7.9.9 2.1.7 3.2zM1288.6 579.6c.9-.9 1.5-2.7-.4-6.4-.7-1.4-1.6-2.8-2.8-4.3 7.9-5.6 19.8-12.4 25.5-8.3.5.3 1.1.2 1.4-.2.3-.5.2-1.1-.2-1.4-7.2-5-20.4 3-27.9 8.4-.7-.8-1.4-1.6-2.2-2.4-1.3-1.3-2.6-2.4-3.8-3.4 4.3-6.5 6.1-11.7 5.2-15.5-.6-2.7-2.5-3.7-2.6-3.7-.5-.2-1.1 0-1.3.5-.2.5 0 1.1.5 1.3 0 0 1.1.6 1.5 2.3.4 1.9.2 6.1-4.9 13.8-2.7-1.8-5.2-2.9-7-2.9-.9 0-1.7.3-2.2.8-.3.3-.5.7-.7 1.2-.6 1.5-11.4 28.8-11.8 29.9-.4.9-.2 1.8.4 2.4.4.4.9.6 1.5.6.3 0 .6-.1.9-.2l15.5-6.1c12.1-4.8 14.1-5.6 14.5-5.7.2-.2.6-.4.9-.7zm-19.1-20.2c1.2 0 3.3.8 5.8 2.5-.8 1.2-1.7 2.4-2.8 3.7-.3.4-.3 1.1.2 1.4.2.1.4.2.6.2.3 0 .6-.1.8-.4 1-1.3 2-2.6 2.8-3.8 1.1.9 2.3 1.9 3.6 3.2.7.7 1.4 1.4 2 2.2-2.2 1.7-3.7 2.9-3.9 3.1-.4.4-.5 1-.1 1.4.2.2.5.3.8.3.2 0 .5-.1.7-.2 1-.9 2.3-1.9 3.8-3.1 1.1 1.4 2 2.8 2.6 4 1.1 2.2 1.2 3.7.8 4.1-.2.2-.6.2-.8.2-2 0-6.3-2.2-11-6.9-2.6-2.6-4.7-5.3-5.9-7.8-1.1-2.2-1.2-3.7-.8-4.1h.8zm2.8 24.7l-15.5 6.1c-.2.1-.2 0-.2.1v-.3c.3-.9 7.5-18.9 10.5-26.5.2.4.3.8.5 1.2 1.3 2.6 3.5 5.5 6.3 8.3 3.3 3.3 6.7 5.7 9.5 6.8-2.8 1-6.9 2.6-11.1 4.3z" transform="translate(-646 -329)"/><path class="st1" d="M1314.1 542.9c2.4-2.6-.9-7.1-1.2-7.6-.3-.4-1-.5-1.4-.2-.4.3-.5 1-.2 1.4.9 1.2 2.4 4 1.4 5.1-.6.7-1.9.4-3.7-.1-1.4-.4-2.8-.7-3.8-.1-1.6 1-.3 3.1 1.1 5.3.6.9 1.6 2.5 1.7 3.2-.8-.1-2.8-1.5-3.9-2.2-2.5-1.7-4.3-2.9-5.5-2-1.7 1.1-1.5 6-1.2 8.8.1.5.5.9 1 .9h.1c.6-.1.9-.5.9-1.1-.3-3.1-.2-6.2.2-6.9.6.1 2.3 1.3 3.4 2 2.6 1.8 4.9 3.3 6.4 2.1 1.5-1.2.1-3.5-1.4-5.9-.5-.8-1.2-2-1.4-2.6.5 0 1.4.2 1.9.4 1.8.5 4.1 1.1 5.6-.5zM1266.7 550c-.2-1.9-2.8-2.1-5.6-2.2-.9 0-2.3-.1-3-.3.3-.4 1-1 1.4-1.4 1.5-1.2 3.3-2.8 2.8-5-.8-3.4-6.4-3.3-7-3.3-.6 0-1 .5-1 1s.5 1 1 1c1.5-.1 4.6.3 5 1.7.2.9-.8 1.8-2.1 3-1.1 1-2.2 1.9-2.2 3.1-.1 1.9 2.4 2 5 2.1 1.1.1 3 .1 3.6.4-.6.6-2.8 1.5-4 1.9-2.8 1.1-4.8 1.9-4.8 3.4-.1 2 4.1 4.6 6.6 6 .2.1.3.1.5.1.4 0 .7-.2.9-.5.3-.5.1-1.1-.4-1.4-2.7-1.5-5.2-3.3-5.5-4.1.5-.5 2.4-1.2 3.5-1.7 2.9-1 5.4-2 5.3-3.8zM1273.9 541.9c-.2.2-.3.4-.3.7 0 .3.1.5.3.7.2.2.4.3.7.3.3 0 .5-.1.7-.3.2-.2.3-.5.3-.7 0-.3-.1-.5-.3-.7-.4-.3-1.1-.3-1.4 0zM1288.7 542.5c-.4-.4-1-.4-1.4 0-.2.2-.3.4-.3.7 0 .3.1.5.3.7.2.2.4.3.7.3.3 0 .5-.1.7-.3.2-.2.3-.4.3-.7 0-.2-.1-.5-.3-.7zM1302.2 538.5c.2-.2.3-.4.3-.7s-.1-.5-.3-.7c-.4-.4-1-.4-1.4 0-.2.2-.3.4-.3.7 0 .3.1.5.3.7.2.2.4.3.7.3.3 0 .6-.1.7-.3zM1287.3 549c-.2.2-.3.5-.3.7 0 .3.1.5.3.7.2.2.4.3.7.3.3 0 .5-.1.7-.3.2-.2.3-.4.3-.7 0-.3-.1-.5-.3-.7-.4-.4-1.1-.4-1.4 0zM1256.1 568.2c-.2.2-.3.5-.3.7 0 .3.1.5.3.7.2.2.4.3.7.3.3 0 .5-.1.7-.3.2-.2.3-.5.3-.7s-.1-.5-.3-.7c-.3-.4-1-.4-1.4 0zM1294.7 577.8c-.2.2-.3.4-.3.7 0 .3.1.5.3.7.2.2.4.3.7.3.3 0 .5-.1.7-.3.2-.2.3-.4.3-.7 0-.3-.1-.5-.3-.7-.4-.4-1-.4-1.4 0zM1303 575.1c-.2.2-.3.4-.3.7 0 .3.1.5.3.7.2.2.4.3.7.3s.5-.1.7-.3c.2-.2.3-.4.3-.7 0-.3-.1-.5-.3-.7-.3-.4-1-.4-1.4 0zM1287.7 586.5c-.2.2-.3.4-.3.7 0 .3.1.5.3.7.2.2.4.3.7.3.3 0 .5-.1.7-.3.2-.2.3-.4.3-.7 0-.3-.1-.5-.3-.7-.4-.3-1-.3-1.4 0zM1299.6 590.2c-.2.2-.3.4-.3.7 0 .3.1.5.3.7.2.2.4.3.7.3.3 0 .5-.1.7-.3.2-.2.3-.5.3-.7s-.1-.5-.3-.7c-.4-.4-1.1-.4-1.4 0zM1266.7 571c-.2.2-.3.4-.3.7 0 .3.1.5.3.7.2.2.4.3.7.3.3 0 .5-.1.7-.3.2-.2.3-.4.3-.7 0-.3-.1-.5-.3-.7-.3-.4-1-.4-1.4 0zM1593.8 415.7c-.4 0-.8.3-.9.7-.1.4 0 .8.4 1.1 4.8 3.5 10.5 3.1 14.1 1.7 2.4 1.2 4.9 2 7.6 2.2l10.9.9h.1c.5 0 1-.4 1-.9s-.4-1-.9-1.1l-10.9-.9c-2.6-.2-5-1-7.3-2.2-.3-.2-.6-.2-.9 0-2.5 1.1-6.5 1.6-10.2 0 2.3-.7 4-2 5.3-3.9.2-.4.2-.8 0-1.1-2.7-3.6-4-8.1-3.7-12.7.9-10.1 9.8-17.7 20-16.8l19.2 1.7c10.1.9 17.7 9.8 16.8 20 0 .6.4 1 .9 1.1.6.1 1-.4 1.1-.9 1-11.2-7.4-21.2-18.6-22.1l-19.2-1.7c-11.2-1-21.2 7.4-22.1 18.6-.4 4.8.9 9.5 3.6 13.5-1.5 1.7-3.5 2.6-6.3 2.8z" transform="translate(-646 -329)"/><path class="st1" d="M1614.5 396.5c-2.4-.2-4.5 1.6-4.7 3.9-.1 1.1.3 2.3 1 3.1.7.9 1.8 1.4 2.9 1.5h.4c2.2 0 4.1-1.7 4.3-3.9.2-2.3-1.6-4.4-3.9-4.6zm-.6 6.6c-.6-.1-1.2-.3-1.6-.8-.4-.5-.6-1.1-.5-1.7.1-1.2 1.1-2.1 2.3-2.1h.2c1.3.1 2.2 1.2 2.1 2.5-.1 1.3-1.2 2.2-2.5 2.1zM1622.1 401.5c-.1 1.1.3 2.3 1 3.1.7.9 1.8 1.4 2.9 1.5h.4c2.2 0 4.1-1.7 4.3-3.9.2-2.4-1.6-4.5-3.9-4.7-2.4-.1-4.5 1.7-4.7 4zm6.6.6c-.1 1.3-1.2 2.2-2.5 2.1-.6-.1-1.2-.3-1.6-.8-.4-.5-.6-1.1-.5-1.7.1-1.2 1.1-2.1 2.3-2.1h.2c1.3.1 2.2 1.2 2.1 2.5zM1634.4 402.6c-.1 1.1.3 2.3 1 3.1.7.9 1.8 1.4 2.9 1.5h.4c2.2 0 4.1-1.7 4.3-3.9.2-2.4-1.6-4.5-3.9-4.7-2.4-.1-4.5 1.6-4.7 4zm6.6.6c-.1 1.2-1.2 2.2-2.5 2.1-.6-.1-1.2-.3-1.6-.8-.4-.5-.6-1.1-.5-1.7.1-1.2 1.1-2.1 2.3-2.1h.2c1.3.1 2.2 1.2 2.1 2.5zM1684 460.5c1.6 1 5.2 2.8 9.9 2.8 2.7 0 5.4-.6 7.9-1.8.4-.2.6-.6.6-1s-.4-.8-.8-.9c-3.6-.8-6-2.5-7.3-5.3 4.3-4.3 7-9.9 7.5-15.9 1.2-14-9.2-26.4-23.2-27.6l-24.2-2.1c-.7-.1-1.5-.1-2.2-.1-13.1 0-24.2 10.2-25.4 23.3-1.2 14 9.2 26.4 23.2 27.6l24.2 2.1c3.2.3 6.6-.1 9.8-1.1zm-55.4-28.4c1-12 11.3-21.5 23.4-21.5.7 0 1.4 0 2.1.1l24.2 2.1c12.9 1.1 22.5 12.5 21.4 25.4-.5 5.8-3.1 11.1-7.4 15.1-.3.3-.4.7-.2 1.1 1.2 2.8 3.3 4.9 6.2 6.2-1.4.4-2.9.6-4.4.6-4.7 0-8.2-2.1-9.2-2.7-.2-.1-.4-.2-.6-.2-.1 0-.2 0-.3.1-3.1 1.1-6.4 1.5-9.6 1.2l-24.2-2.1c-12.9-1.1-22.5-12.5-21.4-25.4zM1392.3 591c.6 0 1.2-.1 1.8-.3l59-21.6c2.3-.8 3.6-3.1 3.1-5.1l-10.2-34c-.4-1.6-1.7-2.6-3.4-2.9l-1.3-4.4c-.1-.3-.3-.5-.5-.6-.2-.1-.5-.1-.8 0l-.7.2-.7-2.3c-.1-.3-.3-.5-.5-.6-.2-.1-.5-.1-.8 0l-1.1.4c-1.2-1.7-3.3-2.5-5.1-1.9l-22 8.1c-1.1-1.7-3.2-2.5-5-1.9L1377 534c-2.1.8-3.3 3.3-2.5 5.6l.8 2.5-1 .4c-.3.1-.5.3-.6.5-.1.3-.1.5 0 .8l1 2.2-.7.2c-.3.1-.5.3-.6.5-.1.3-.1.5 0 .8l1.9 4.2c-.3.4-.6.8-.8 1.2-.4 1-.4 2.1.1 3.1l14.1 32.6c.4 1.5 1.9 2.4 3.6 2.4zm48.2-63.7c-.1 0-.2 0-.3.1l-63.2 23.1c-.1 0-.2.1-.3.1l-1.3-2.8 64.2-23.5.9 3zm-64.2 11.8c-.4-1.3.2-2.8 1.3-3.2l27.1-9.9c1.1-.4 2.4.3 2.9 1.6.2.5.8.8 1.3.6l22.9-8.4c.8-.3 1.8 0 2.5.7l-57.3 20.9-.7-2.3zm-.5 5l61.2-22.4.4 1.4-61 22.3-.6-1.3zm.3 9.7c.3-.6.8-1.2 1.6-1.4l63.2-23.1c.3-.1.7-.2 1-.2 1 0 1.8.6 2.1 1.5l10.2 34c.3 1-.6 2.2-1.9 2.7l-59 21.6c-1.2.5-2.7 0-3.1-.8l-14.1-32.6c-.2-.8-.1-1.3 0-1.7z" transform="translate(-646 -329)"/><path class="st1" d="M1393.6 577.8c.1 0 .2 0 .3-.1l15.9-5.8c.5-.2.8-.8.6-1.3-.2-.5-.8-.8-1.3-.6l-15.9 5.8c-.5.2-.8.8-.6 1.3.2.4.6.7 1 .7zM1405.5 576l-10.4 3.8c-.5.2-.8.8-.6 1.3.1.4.5.7.9.7.1 0 .2 0 .3-.1l10.4-3.8c.5-.2.8-.8.6-1.3-.1-.5-.6-.7-1.2-.6zM1512 244.3c-3.9-3.9-38.5 8.1-54.7 24.3-1.6 1.6-2.9 3.1-4.1 4.6-10-1.9-18.5 4-21.8 8.6-1.2 1.6-1.5 2.8-1.1 3.6.6 1.1 1.9 1.1 3.7 1.1 2.6 0 6.4 0 11.2 2.7-.8 4.2-.2 7.2.2 8.5l-7.3 6.5c-2.2-5.4-7.5-9.1-13.4-9.1-2.3 0-4.5.5-6.5 1.6-3.3-3.7-8.1-6-13.2-6-9.7 0-17.7 7.9-17.7 17.7 0 1.8.3 3.5.8 5.1-6 4.3-9.7 11.4-9.7 19 0 13 10.5 23.5 23.5 23.5.7 0 1.4 0 2.1-.1.6 8.9 8 16 17.1 16 5 0 9.7-2.2 13-6 2.2.8 4.5 1.3 6.9 1.3 10.6 0 19.2-8.6 19.2-19.2 0-5.6-2.5-10.7-6.4-14.2 2.2-2.5 3.4-5.6 3.4-8.9 0-3.1-1.1-6.1-3-8.4l4.7-5.3c.8.2 2.3.6 4.4.6 1.2 0 2.5-.1 4.1-.4 2.7 4.8 2.7 8.7 2.7 11.2 0 1.8 0 3.1 1.1 3.7.2.1.5.2.8.2.7 0 1.7-.4 2.8-1.3 4.6-3.4 10.5-11.9 8.6-21.9 1.5-1.2 3-2.6 4.6-4.1 15.9-16.4 27.8-51 24-54.9zm-78.1 40.1h-1.8c.3-.8 1.7-2.9 4.5-5.1 2.7-2.1 8.2-5.3 15.2-4.3-3.4 4.6-5.2 8.7-6.2 12.1-5-2.7-9.1-2.7-11.7-2.7zm24.1 63.5c0 9.5-7.7 17.2-17.2 17.2-3.7 0-7.3-1.2-10.3-3.4-.4-.3-1.1-.2-1.4.2-.3.4-.2 1.1.2 1.4.8.6 1.7 1.2 2.7 1.7-2.9 3.1-6.8 4.8-11 4.8-8.1 0-14.6-6.3-15.1-14.3 1.9-.3 3.8-.9 5.6-1.8.5-.2.7-.8.5-1.3-.2-.5-.8-.7-1.3-.5-2.8 1.3-5.8 1.9-8.9 1.9-11.9 0-21.5-9.6-21.5-21.5 0-9.2 5.8-17.3 14.5-20.3.5-.2.8-.8.6-1.3-.2-.5-.8-.8-1.3-.6-1.5.5-3 1.2-4.4 2.1-.3-1.3-.5-2.6-.5-4 0-8.6 7-15.7 15.7-15.7 5.5 0 10.7 3 13.5 7.8.3.5.9.6 1.4.4.5-.3.6-.9.4-1.4-.2-.4-.5-.8-.8-1.2 1.6-.8 3.4-1.2 5.3-1.2 5.4 0 10.1 3.5 11.8 8.5l-15.3 13.6c-.4-.6-.8-1.1-1.2-1.6 1.7-2.8 2.6-5.9 2.6-9.2 0-.6-.4-1-1-1s-1 .4-1 1c0 2.7-.7 5.3-2 7.7l-1.1-1.1c-.4-.4-1-.3-1.4.1-.4.4-.3 1 .1 1.4 3.1 2.8 5.4 6.4 6.4 10.4.1.4.5.7 1 .7h.3c.5-.1.8-.7.7-1.2-.5-1.9-1.3-3.7-2.2-5.4l24.3-21.5 3 3c-.7 1.1-1.2 2.1-1.4 3-.2 1.2.3 1.9.7 2.3.5.5 1.1.7 1.8.7 1 0 2.2-.5 3.5-1.4l3 3-16.7 18.9c-2.1 0-4.2.4-6.1 1.1-.5.2-.8.8-.6 1.3.2.5.8.8 1.3.6 1.9-.7 3.9-1 5.9-1 9.2 0 16.9 7.7 16.9 17.1zm-4.4-43.1s-.1.1-.2.1c-1.2.9-2.1 1.4-2.9 1.4-.2 0-.3-.1-.4-.1-.1-.1-.2-.2-.1-.6.1-.7.6-1.6 1.4-2.7 0 0 0-.1.1-.1 3.8-5 13.7-12.8 16.3-14.3-1.5 2.7-9.2 12.5-14.2 16.3zm1.4 20c0 2.9-1.1 5.6-3 7.7-2.6-1.9-5.7-3.2-9.1-3.6l9.8-11.1c1.5 2 2.3 4.5 2.3 7zm22-5.1c-2.2 2.8-4.3 4.2-5.1 4.5-.1-.4-.1-1.2-.1-1.8 0-2.5 0-6.6-2.6-11.7 3.4-.9 7.6-2.8 12.1-6.2 1 7-2.2 12.5-4.3 15.2zm-18-10.7l-3.3-3.3c6-4.9 13.3-15 14-16.3.3-.5 1.1-2 .2-2.9-.2-.2-.5-.4-1-.4s-1.1.2-1.8.6c-1.7.9-11.5 8.2-16.3 14l-3.3-3.3c-.5-1.5-3.3-12.7 11.4-27.3 16.7-16.7 49.2-26.5 51.9-24.3 2.3 2.6-7.6 35.2-24.3 51.9-14.9 14.6-26 11.8-27.5 11.3zM1534.7 525.9l-18.9 3.3c-2.9.5-5.7-1.4-6.2-4.4l-7.3-41.1c-.5-2.9 1.4-5.7 4.4-6.2l44.7-7.9c2.9-.5 5.7 1.4 6.2 4.4l1.6 8.8c.1.5.6.9 1.2.8.5-.1.9-.6.8-1.2l-1.6-8.8c-.7-4-4.5-6.7-8.6-6l-44.7 7.9c-1.9.3-3.6 1.4-4.8 3s-1.6 3.6-1.2 5.5l7.3 41.1c.3 1.9 1.4 3.6 3 4.8 1.3.9 2.7 1.3 4.2 1.3.4 0 .9 0 1.3-.1l18.9-3.3c.5-.1.9-.6.8-1.2 0-.4-.5-.8-1.1-.7z" transform="translate(-646 -329)"/><path class="st1" d="M1516.4 494.7c1.1-.2 2.1-.8 2.8-1.8s.9-2.1.7-3.3c-.4-2.3-2.6-4-5-3.5-1.1.2-2.1.8-2.8 1.8s-.9 2.1-.7 3.3c.4 2.1 2.2 3.6 4.3 3.6.2 0 .4 0 .7-.1zm-3.1-3.8c-.1-.6 0-1.2.4-1.8.4-.5.9-.9 1.5-1h.4c1.1 0 2.1.8 2.3 1.9.1.6 0 1.2-.4 1.8-.4.5-.9.9-1.5 1-1.3.2-2.4-.7-2.7-1.9zM1551.7 484.1c-.1-.5-.6-.9-1.2-.8l-25.4 4.5c-.5.1-.9.6-.8 1.2.1.5.5.8 1 .8h.2l25.4-4.5c.5-.1.9-.7.8-1.2zM1517.7 506.6c.3 0 .5 0 .8-.1 1.1-.2 2.1-.8 2.8-1.8s.9-2.1.7-3.3c-.4-2.3-2.6-4-5-3.5-2.4.4-3.9 2.7-3.5 5 .3 2.2 2.1 3.7 4.2 3.7zm-.4-6.6h.4c1.1 0 2.1.8 2.3 1.9.1.6 0 1.2-.4 1.8-.4.5-.9.9-1.5 1-1.3.2-2.5-.6-2.7-1.9-.2-1.4.6-2.6 1.9-2.8zM1527.2 499.6c-.5.1-.9.6-.8 1.2.1.5.5.8 1 .8h.2l7.4-1.3c.5-.1.9-.6.8-1.2s-.6-.9-1.2-.8l-7.4 1.3zM1519.8 518.5c.3 0 .5 0 .8-.1 1.1-.2 2.1-.8 2.8-1.8.7-1 .9-2.1.7-3.3-.4-2.3-2.6-4-5-3.5-2.4.4-3.9 2.7-3.5 5 .3 2.2 2.1 3.7 4.2 3.7zm-.4-6.7h.4c1.1 0 2.1.8 2.3 1.9.1.6 0 1.2-.4 1.8-.4.5-.9.9-1.5 1-1.3.2-2.5-.6-2.7-1.9-.2-1.4.6-2.6 1.9-2.8zM1536.6 510.1l-7.4 1.3c-.5.1-.9.6-.8 1.2.1.5.5.8 1 .8h.2l7.4-1.3c.5-.1.9-.6.8-1.2-.1-.5-.6-.9-1.2-.8zM1547.9 542.9c.6 3.5 3.7 6.1 7.3 6.1.4 0 .9 0 1.3-.1l44.7-7.9c1.9-.3 3.6-1.4 4.8-3 1.1-1.6 1.6-3.6 1.2-5.5l-7.3-41.1c-.6-3.5-3.7-6.1-7.3-6.1-.4 0-.9 0-1.3.1l-44.7 7.9c-1.9.3-3.6 1.4-4.8 3-1.1 1.6-1.6 3.6-1.2 5.5l7.3 41.1zm-4.4-45.5c.8-1.2 2.1-2 3.5-2.2l44.7-7.9c.3-.1.6-.1.9-.1 2.6 0 4.8 1.9 5.3 4.5l7.3 41.1c.2 1.4-.1 2.8-.9 4-.8 1.2-2.1 2-3.5 2.2l-44.7 7.9c-.3.1-.6.1-.9.1-2.6 0-4.8-1.9-5.3-4.5l-7.3-41.1c-.3-1.3 0-2.8.9-4z" transform="translate(-646 -329)"/><path class="st1" d="M1555.9 512.5c.3 0 .5 0 .8-.1 1.1-.2 2.1-.8 2.8-1.8.7-1 .9-2.1.7-3.3-.4-2.3-2.6-4-5-3.5-1.1.2-2.1.8-2.8 1.8-.7 1-.9 2.1-.7 3.3.3 2.1 2.1 3.6 4.2 3.6zm-1.9-5.7c.4-.5.9-.9 1.5-1h.4c1.1 0 2.1.8 2.3 1.9.1.6 0 1.2-.4 1.8-.4.5-.9.9-1.5 1-1.3.2-2.5-.6-2.7-1.9-.1-.7 0-1.3.4-1.8zM1565.5 507.4h.2l25.4-4.5c.5-.1.9-.6.8-1.2-.1-.5-.6-.9-1.2-.8l-25.4 4.5c-.5.1-.9.6-.8 1.2.1.5.5.8 1 .8zM1557.2 515.7c-1.1.2-2.1.8-2.8 1.8-.7 1-.9 2.1-.7 3.3.4 2.1 2.2 3.6 4.3 3.6.2 0 .5 0 .8-.1 2.4-.4 3.9-2.7 3.5-5-.4-2.4-2.7-4.1-5.1-3.6zm3.1 3.8c.2 1.3-.6 2.5-1.9 2.7-1.3.2-2.5-.6-2.7-1.9-.1-.6 0-1.2.4-1.8.4-.5.9-.9 1.5-1h.4c1.1.1 2.1.9 2.3 2zM1566.6 518.4c.1.5.5.8 1 .8h.2l25.4-4.5c.5-.1.9-.6.8-1.2-.1-.5-.6-.9-1.2-.8l-25.4 4.5c-.5.2-.9.7-.8 1.2zM1559.3 527.5c-1.1.2-2.1.8-2.8 1.8-.7 1-.9 2.1-.7 3.3.4 2.1 2.2 3.6 4.3 3.6.3 0 .5 0 .8-.1 2.4-.4 3.9-2.7 3.5-5-.4-2.4-2.7-4.1-5.1-3.6zm3.1 3.9c.2 1.3-.6 2.5-1.9 2.7-1.3.2-2.5-.6-2.7-1.9-.1-.6 0-1.2.4-1.8.4-.5.9-.9 1.5-1h.4c1.1 0 2.1.8 2.3 2zM1568.7 530.2c.1.5.5.8 1 .8h.2l25.4-4.5c.5-.1.9-.6.8-1.2-.1-.5-.6-.9-1.2-.8l-25.4 4.5c-.5.2-.9.7-.8 1.2zM1367.1 425.5l-8.4-1.7.5-2.5c.3-1.4-.6-2.9-2.1-3.2-1.4-.3-2.9.7-3.2 2.1l-.5 2.5-15.5-3.2.5-2.5c.3-1.4-.6-2.9-2.1-3.2-1.4-.3-2.9.7-3.2 2.1l-.5 2.5-8.4-1.7c-.5-.1-1.1.2-1.2.8l-2 9.9-6.7 32.9c-.1.5.2 1.1.8 1.2l34.5 7.1h.5c.1 0 .2-.1.3-.1l10-6.6.2-.2s0-.1.1-.1c0-.1.1-.2.1-.2v-.1l5-24.6 2-9.9c.1-.3 0-.5-.1-.8-.1-.3-.3-.5-.6-.5zm-10.5-5.4h.1c.2 0 .3.1.4.3.1.2.1.3.1.5l-1.1 5.3c-.1.4-.4.6-.8.5-.4-.1-.6-.4-.5-.8l.4-1.8.7-3.5c.1-.3.4-.5.7-.5zm-20.7-4.3h.1c.4.1.6.4.5.8l-1.1 5.3c-.1.4-.4.6-.8.5-.4-.1-.6-.4-.5-.8l1.1-5.3c.1-.3.4-.5.7-.5zm-11 3.1l7.4 1.5-.2.8c-.3 1.4.6 2.9 2.1 3.2.2 0 .4.1.5.1 1.3 0 2.4-.9 2.6-2.1l.2-.8 15.5 3.2-.2.8c-.3 1.4.6 2.9 2.1 3.2.2 0 .4.1.5.1 1.3 0 2.4-.9 2.6-2.1l.2-.8 7.4 1.5-1.6 7.9-40.8-8.4 1.7-8.1zm26.4 46.5l1-4.9 4.9 1-5.9 3.9zm7.8-5.6l-7.3-1.5c-.3-.1-.5 0-.8.1s-.4.4-.4.6l-1.5 7.3-32.5-6.7 6.3-30.9 40.8 8.4-4.6 22.7z" transform="translate(-646 -329)"/><path class="st1" d="M1330.9 440.8l20.7 4.2h.2c.5 0 .9-.3 1-.8.1-.5-.2-1.1-.8-1.2l-20.7-4.2c-.5-.1-1.1.2-1.2.8-.1.6.2 1.1.8 1.2zM1329.6 447.3l20.7 4.2h.2c.5 0 .9-.3 1-.8.1-.5-.2-1.1-.8-1.2l-20.7-4.2c-.5-.1-1.1.2-1.2.8-.1.5.2 1 .8 1.2zM1328.3 453.7l10.4 2.1h.2c.5 0 .9-.3 1-.8.1-.5-.2-1.1-.8-1.2l-10.4-2.1c-.5-.1-1.1.2-1.2.8-.1.5.2 1.1.8 1.2zM1606 647.8c.1.3.2.5.4.6.2.1.3.2.5.2h.2l15.3-3.5c1.6 2.1 4.1 3.2 6.6 3.2.6 0 1.3-.1 1.9-.2 3.2-.7 5.6-3.3 6.3-6.5l15.3-3.5c.5-.1.9-.7.7-1.2l-1.9-8.3c-.1-.3-.2-.5-.4-.6-.2-.1-.5-.2-.8-.1-.4.1-.9.2-1.3.2-2.8 0-5.2-1.9-5.8-4.6l-1.3-5.6c-.1-.3-.2-.5-.4-.6-.2-.1-.5-.2-.8-.1h-.2l-.5-2.3h.2c.3-.1.5-.2.6-.4.1-.2.2-.5.1-.8l-1.8-7.6c-1.8-7.9-8.8-13.4-16.9-13.4-1.3 0-2.6.2-3.9.5-9.3 2.2-15.1 11.5-13 20.8l1.8 7.6c.1.3.2.5.4.6.2.1.3.2.5.2h.4l.5 2.3h-.2c-.5.1-.9.7-.7 1.2l1.3 5.6c.4 1.5.1 3.1-.7 4.5-.8 1.3-2.2 2.3-3.7 2.6-.5.1-.9.7-.7 1.2l2 8zm24.5-1.7c-2.1.5-4.3-.2-5.8-1.6l10.4-2.4c-.8 1.9-2.5 3.5-4.6 4zm-23.3-32.9c-.9-4-.2-8.1 1.9-11.6 2.2-3.5 5.6-5.9 9.6-6.8 1.1-.3 2.3-.4 3.5-.4 7.2 0 13.3 4.9 14.9 11.9l1.5 6.6h-.2l-29.5 6.9h-.2l-1.5-6.6zm3.1 8.4l27.6-6.4.5 2.3-27.6 6.4-.5-2.3zm.9 9.1l-1.1-4.6h.2l25.9-6 3.9-.9 1.1 4.6c.8 3.6 4 6.1 7.7 6.1h.8l1.5 6.5-15 3.5-28.4 6.6-1.5-6.5c3.6-1.5 5.8-5.4 4.9-9.3zM1560.5 337.1c.8 0 1.6-.3 2.2-.9l22.4-22.4c.6-.6.9-1.4.9-2.2 0-.8-.3-1.6-.9-2.2-1.2-1.2-3.2-1.2-4.4 0l-22.4 22.4c-.6.6-.9 1.4-.9 2.2 0 .8.3 1.6.9 2.2.6.6 1.4.9 2.2.9zm-.8-3.8l22.4-22.4c.2-.2.5-.3.8-.3s.6.1.8.3c.2.2.3.5.3.8 0 .3-.1.6-.3.8l-22.4 22.4c-.4.4-1.1.4-1.5 0-.2-.2-.3-.5-.3-.8s0-.6.2-.8z" transform="translate(-646 -329)"/><path class="st1" d="M1545 353.8c-.2.2-.3.5-.3.9.1.3.2.6.5.7 1.9 1 4.1 1.5 6.3 1.5 3.7 0 7.2-1.5 9.9-4.1 2.6-2.6 4.1-6.2 4.1-9.8.4-4.6.4-4.6 6.7-10.9l16-16c1.3-1.3 2-3.1 2-4.9 0-1.9-.7-3.6-2-4.9-1.3-1.3-3.1-2-4.9-2-1.9 0-3.6.7-4.9 2l-16 16c-6.3 6.3-6.3 6.3-10.8 6.7-3.7 0-7.2 1.5-9.9 4.1-4.3 4.3-5.3 10.8-2.6 16.2.1.3.4.5.7.5.3.1.6-.1.9-.3l9.3-9.3c.1-.1.3-.2.6-.2l3.1.6c.1 0 .2.1.2.2l.6 3.1c0 .2-.1.5-.2.6l-9.3 9.3zm11.5-10.2l-.6-3.1c-.2-.9-.9-1.7-1.8-1.8l-3.1-.6c-.8-.1-1.8.2-2.4.7l-8.2 8.2c-1.6-4.3-.6-9.2 2.8-12.6 2.3-2.3 5.3-3.5 8.5-3.5h.1c5.3-.5 5.6-.8 12.1-7.3l16-16c.9-.9 2.2-1.4 3.5-1.4 1.3 0 2.6.5 3.5 1.4s1.4 2.2 1.4 3.5-.5 2.6-1.4 3.5l-16 16c-6.5 6.5-6.8 6.8-7.3 12.2 0 3.2-1.2 6.2-3.5 8.5s-5.3 3.5-8.4 3.5c-1.4 0-2.8-.2-4.1-.7l8.2-8.2c.5-.5.8-1.5.7-2.3zM1464 402c-3.6 0-7 1.5-9.5 4.3-2.4-1.8-5.1-2.7-7.9-2.7-3.4 0-6.7 1.4-8.9 3.9-2.3 2.5-3.4 6-3.1 9.8 1 11.9 15.6 19.5 22.4 21.3h.3c.1 0 .3 0 .4-.1 6.4-3 19.4-13 18.4-24.9-.8-8-6.8-11.6-12.1-11.6zm-6.8 34.5c-6.3-1.8-19.7-8.9-20.6-19.5-.4-4.1 1.2-6.7 2.6-8.2 1.9-2 4.6-3.2 7.4-3.2 2.7 0 5.2 1 7.4 2.9.2.2.5.3.7.2.3 0 .5-.2.7-.4 2.2-2.7 5.3-4.3 8.6-4.3 4.4 0 9.5 3 10 9.7 1 10.6-10.9 19.9-16.8 22.8zM1203.8 355.1c-.4.2-.7.7-.5 1.2l2.2 8.8c.1.5.6.8 1 .8l5.7-.3c.5.9 1.1 1.7 1.8 2.5l-2 5.5c-.2.5 0 1 .4 1.2l7.8 4.6c.4.2.9.2 1.3-.2l3.8-4.2c1 .2 2 .4 3 .5l2.5 5.3c.2.4.5.6.9.6h.2l8.8-2.2c.5-.1.8-.5.8-1l-.3-5.7c.9-.5 1.7-1.1 2.5-1.8l5.5 2c.5.2 1 0 1.2-.4l4.6-7.8c.2-.4.2-.9-.2-1.3l-4.2-3.8c.2-1 .4-2 .5-3l5.3-2.5c.4-.2.7-.7.5-1.2l-2.2-8.8c-.1-.5-.6-.8-1-.8l-5.7.3c-.5-.9-1.1-1.7-1.8-2.5l2-5.5c.2-.5 0-1-.4-1.2l-7.8-4.6c-.4-.2-.9-.2-1.3.2l-3.8 4.2c-1-.2-2-.4-3-.5l-2.5-5.3c-.2-.4-.7-.7-1.2-.5l-8.8 2.2c-.5.1-.8.6-.8 1l.3 5.7c-.9.5-1.7 1.1-2.5 1.8l-5.5-2c-.5-.2-1 0-1.2.4l-4.6 7.8c-.2.4-.2.9.2 1.3l4.2 3.8c-.2 1-.4 2-.5 3l-5.2 2.4zm7.5-6.6l-4.1-3.6 3.8-6.3 5.2 1.9c.3.1.7.1 1-.2 1-.9 2-1.6 3.1-2.3.3-.2.5-.5.5-.9l-.3-5.4 7.1-1.8 2.4 5c.2.3.5.6.9.6 1.3.1 2.6.3 3.8.6.4.1.8 0 1-.3l3.6-4.1 6.3 3.8-1.9 5.2c-.1.3-.1.7.2 1 .9 1 1.6 2 2.3 3.1.2.3.6.5.9.5l5.4-.3 1.8 7.1-5 2.4c-.3.2-.6.5-.6.9-.1 1.3-.3 2.6-.6 3.8-.1.4 0 .8.3 1l4.1 3.6-3.8 6.3-5.2-1.9c-.3-.1-.7-.1-1 .2-1 .9-2 1.6-3.1 2.3-.3.2-.5.5-.5.9l.3 5.4-7.1 1.8-2.4-5c-.2-.3-.5-.6-.9-.6-1.3-.1-2.6-.3-3.8-.6h-.3c-.3 0-.6.1-.7.3l-3.6 4.1-6.3-3.8 1.9-5.2c.1-.3.1-.7-.2-1-.9-.9-1.6-2-2.3-3.1-.2-.3-.5-.5-.9-.5l-5.4.3-1.8-7.1 5-2.4c.3-.2.6-.5.6-.9.1-1.3.3-2.6.6-3.8.1-.3 0-.7-.3-1z" transform="translate(-646 -329)"/><path class="st1" d="M1229.9 364c.8 0 1.6-.1 2.4-.3 2.5-.6 4.6-2.2 5.9-4.4 1.3-2.2 1.7-4.8 1.1-7.3-1.1-4.3-4.9-7.3-9.4-7.3-.8 0-1.6.1-2.4.3-2.5.6-4.6 2.2-5.9 4.4-1.3 2.2-1.7 4.8-1.1 7.3 1.1 4.3 4.9 7.3 9.4 7.3zm-6.6-13.6c1-1.8 2.7-3 4.7-3.5.6-.2 1.3-.2 1.9-.2 3.5 0 6.6 2.4 7.4 5.8.5 2 .2 4-.8 5.8-1 1.8-2.7 3-4.7 3.5-.6.2-1.3.2-1.9.2-3.5 0-6.6-2.4-7.4-5.8-.6-2-.3-4 .8-5.8zM1197.5 382.9c.3 0 .5.1.8.1 2.6 0 4.7-1.8 5.1-4.4.4-2.8-1.5-5.5-4.3-5.9-2.9-.5-5.5 1.5-5.9 4.3-.5 2.8 1.5 5.4 4.3 5.9zm-2.3-5.6c.2-1.5 1.6-2.7 3.1-2.7h.5c1.7.3 2.9 1.9 2.6 3.6-.3 1.7-1.9 2.9-3.6 2.6-1.7-.2-2.9-1.8-2.6-3.5z" transform="translate(-646 -329)"/><path class="st1" d="M1186.3 383.7l2.6 3.5c.3.4.8.5 1.2.3l2.2-1c.3.2.5.3.8.5l.1 2.5c0 .5.4.9.8 1l4.3.7h.2c.4 0 .8-.3.9-.7l.8-2.3c.3-.1.6-.1.9-.2l1.8 1.7c.4.3.9.4 1.3.1l3.5-2.6c.4-.3.5-.8.3-1.2l-1-2.2c.2-.3.3-.5.5-.8l2.5-.1c.5 0 .9-.4 1-.8l.7-4.3c.1-.5-.2-.9-.6-1.1l-2.3-.8c-.1-.3-.1-.6-.2-.9l1.7-1.8c.3-.4.4-.9.1-1.3l-2.6-3.5c-.3-.4-.8-.5-1.2-.3l-2.2 1c-.3-.2-.5-.3-.8-.5l-.1-2.5c0-.5-.4-.9-.8-1l-4.3-.7c-.5-.1-.9.2-1.1.6l-.8 2.3c-.3.1-.6.1-.9.2l-1.8-1.7c-.4-.3-.9-.4-1.3-.1l-3.5 2.6c-.4.3-.5.8-.3 1.2l1 2.2c-.2.3-.3.5-.5.8l-2.5.1c-.5 0-.9.4-1 .8l-.7 4.3c-.1.5.2.9.7 1.1l2.3.8c.1.3.1.6.2.9l-1.7 1.8c-.4.5-.5 1-.2 1.4zm.8-6.4l.4-2.7 2.2-.1c.4 0 .7-.2.9-.6l.9-1.5c.2-.3.3-.7.1-1l-.9-2 2.2-1.6 1.6 1.5c.3.3.7.3 1 .2.5-.2 1.1-.3 1.7-.4.4 0 .7-.3.8-.7l.7-2.1 2.7.4.1 2.2c0 .4.2.7.6.9l1.5.9c.3.2.7.3 1 .1l2-.9 1.6 2.2-1.5 1.6c-.3.3-.3.7-.2 1 .2.5.3 1.1.4 1.7 0 .4.3.7.7.8l2.1.7-.4 2.7-2.2.1c-.4 0-.7.2-.9.6l-.9 1.5c-.2.3-.3.7-.1 1l.9 2-2.2 1.6-1.6-1.5c-.3-.3-.7-.3-1-.2-.5.2-1.1.3-1.7.4-.4 0-.7.3-.8.7l-.7 2.1-2.7-.4-.1-2.2c0-.4-.2-.7-.6-.9l-1.5-.9c-.3-.2-.7-.3-1-.1l-2 .9-1.6-2.2 1.5-1.6c.3-.3.3-.7.2-1-.2-.5-.3-1.1-.4-1.7 0-.4-.3-.7-.7-.8l-2.1-.7zM1057.2 325.7c-1.1.2-2.1.8-2.8 1.8s-.9 2.1-.7 3.3c.4 2.1 2.2 3.6 4.3 3.6.3 0 .5 0 .8-.1 1.1-.2 2.1-.8 2.8-1.8.7-1 .9-2.1.7-3.3-.4-2.3-2.7-4-5.1-3.5zm3.1 3.8c.1.6 0 1.2-.4 1.8-.4.5-.9.9-1.5 1-1.3.2-2.5-.6-2.7-1.9-.1-.6 0-1.2.4-1.8.4-.5.9-.9 1.5-1h.4c1.1 0 2.1.8 2.3 1.9zM1066.6 328.4c.1.5.5.8 1 .8h.2l25.4-4.5c.5-.1.9-.6.8-1.2-.1-.5-.6-.9-1.2-.8l-25.4 4.5c-.5.2-.9.7-.8 1.2zM1059.3 337.5c-1.1.2-2.1.8-2.8 1.8s-.9 2.1-.7 3.3c.4 2.1 2.2 3.6 4.3 3.6.3 0 .5 0 .8-.1 1.1-.2 2.1-.8 2.8-1.8s.9-2.1.7-3.3c-.4-2.3-2.7-3.9-5.1-3.5zm3.1 3.9c.1.6 0 1.2-.4 1.8-.4.5-.9.9-1.5 1-1.3.2-2.5-.6-2.7-1.9-.1-.6 0-1.2.4-1.8.4-.5.9-.9 1.5-1h.4c1.1-.1 2.1.7 2.3 1.9zM1068.7 340.2c.1.5.5.8 1 .8h.2l25.4-4.5c.5-.1.9-.6.8-1.2-.1-.5-.6-.9-1.2-.8l-25.4 4.5c-.5.2-.9.7-.8 1.2zM1104.8 448.2c-.5.1-.9.7-.7 1.2l1.9 8.3c.1.3.2.5.4.6.2.1.3.2.5.2h.2l15.3-3.5c1.6 2.1 4.1 3.2 6.6 3.2.6 0 1.3-.1 1.9-.2 3.2-.7 5.6-3.3 6.3-6.5l15.3-3.5c.5-.1.9-.7.7-1.2l-1.9-8.3c-.1-.5-.7-.9-1.2-.7-.4.1-.9.2-1.3.2-2.8 0-5.2-1.9-5.8-4.6l-1.3-5.6c-.1-.5-.7-.9-1.2-.7h-.2l-.5-2.3h.2c.5-.1.9-.7.7-1.2l-1.8-7.6c-1.8-7.9-8.8-13.4-16.9-13.4-1.3 0-2.6.2-3.9.5-4.5 1-8.4 3.8-10.8 7.7-2.5 3.9-3.2 8.6-2.2 13.1l1.8 7.6c.1.5.5.8 1 .8h.4l.5 2.3h-.2c-.3.1-.5.2-.6.4-.1.2-.2.5-.1.8l1.3 5.6c.8 2.9-1.2 6.1-4.4 6.8zm25.7 7.9c-2.1.5-4.3-.2-5.8-1.6l10.4-2.4c-.8 1.9-2.5 3.5-4.6 4zm-23.3-32.9c-.9-4-.2-8.1 1.9-11.6 2.2-3.5 5.6-5.9 9.6-6.8 1.1-.3 2.3-.4 3.5-.4 7.2 0 13.3 4.9 14.9 11.9l1.5 6.6h-.2l-14.8 3.4-15 3.5-1.4-6.6zm3.6 10.7l-.5-2.3 16.3-3.8 11.3-2.6.5 2.3-13.8 3.2-13.8 3.2zm.4 6.8l-1.1-4.6h.2l14.8-3.4 15-3.5 1.1 4.6c.8 3.6 4 6.2 7.7 6.2h.8l1.5 6.5-43.4 10.1-1.5-6.5c3.6-1.6 5.8-5.5 4.9-9.4zM946 720c-.4-1.6-1.7-2.6-3.4-2.9l-1.3-4.4c-.1-.3-.3-.5-.5-.6-.2-.1-.5-.1-.8 0l-.7.2-.7-2.3c-.1-.3-.3-.5-.5-.6-.2-.1-.5-.1-.8 0l-1.1.4c-1.2-1.7-3.3-2.5-5.1-1.9l-22 8.1c-1.1-1.7-3.2-2.5-5-1.9L877 724c-2.1.8-3.3 3.3-2.5 5.6l.8 2.5-1 .4c-.3.1-.5.3-.6.5-.1.3-.1.5 0 .8l1 2.2-.7.2c-.3.1-.5.3-.6.5-.1.3-.1.5 0 .8l1.9 4.2c-.3.4-.6.8-.8 1.2-.4 1-.4 2.1.1 3.1l14.1 32.6c.6 1.3 2.1 2.2 3.8 2.2.6 0 1.2-.1 1.8-.3l59-21.6c2.3-.8 3.6-3.1 3.1-5.1L946 720zm-5.5-2.7c-.1 0-.2 0-.3.1L877 740.5c-.1 0-.2.1-.3.1l-1.3-2.8 64.2-23.5.9 3zm-64.2 11.8c-.4-1.3.2-2.8 1.3-3.2l27.1-9.9c1.1-.4 2.4.3 2.9 1.6.2.5.8.8 1.3.6l22.9-8.4c.8-.3 1.8 0 2.5.7l-57.3 21-.7-2.4zm-.5 5l61.2-22.4.4 1.4-61 22.3-.6-1.3zm76.6 23.1l-59 21.6c-1.3.5-2.7 0-3.1-.8l-14.1-32.6c-.3-.6-.2-1.2 0-1.5.3-.6.8-1.2 1.6-1.4l63.2-23.1c.3-.1.7-.2 1-.2 1 0 1.8.6 2.1 1.5l10.2 34c.2.8-.6 2-1.9 2.5zM1012 434.3c-3.9-3.9-38.5 8.1-54.7 24.3-1.6 1.6-2.9 3.1-4.1 4.6-10-1.9-18.5 4-21.8 8.6-1.2 1.6-1.5 2.8-1.1 3.6.6 1.1 1.9 1.1 3.7 1.1 2.6 0 6.4 0 11.2 2.7-.8 4.2-.2 7.2.2 8.5l-7.3 6.5c-2.2-5.4-7.5-9.1-13.4-9.1-2.3 0-4.5.5-6.5 1.6-3.3-3.7-8.1-6-13.2-6-9.7 0-17.7 7.9-17.7 17.7 0 1.8.3 3.5.8 5.1-6 4.3-9.7 11.4-9.7 19 0 13 10.5 23.5 23.5 23.5.7 0 1.4 0 2.1-.1.6 8.9 8 16 17.1 16 5 0 9.7-2.2 13-6 2.2.8 4.5 1.3 6.9 1.3 10.6 0 19.2-8.6 19.2-19.2 0-5.6-2.5-10.7-6.4-14.2 2.2-2.5 3.4-5.6 3.4-8.9 0-3.1-1.1-6.1-3-8.4l4.7-5.3c.8.2 2.3.6 4.4.6 1.2 0 2.5-.1 4.1-.4 2.7 4.8 2.7 8.7 2.7 11.2 0 1.8 0 3.1 1.1 3.7.2.1.5.2.8.2.7 0 1.7-.4 2.8-1.3 4.6-3.4 10.5-11.9 8.6-21.9 1.5-1.2 3-2.6 4.6-4.1 15.9-16.4 27.8-51 24-54.9zm-78.1 40.1h-1.8c.3-.8 1.7-2.9 4.5-5.1 2.7-2.1 8.2-5.3 15.2-4.3-3.4 4.6-5.2 8.7-6.2 12.1-5-2.7-9.1-2.7-11.7-2.7zm24.1 63.5c0 9.5-7.7 17.2-17.2 17.2-3.7 0-7.3-1.2-10.3-3.4-.4-.3-1.1-.2-1.4.2-.3.4-.2 1.1.2 1.4.8.6 1.7 1.2 2.7 1.7-2.9 3.1-6.8 4.8-11 4.8-8.1 0-14.6-6.3-15.1-14.3 1.9-.3 3.8-.9 5.6-1.8.5-.2.7-.8.5-1.3-.2-.5-.8-.7-1.3-.5-2.8 1.3-5.8 1.9-8.9 1.9-11.9 0-21.5-9.6-21.5-21.5 0-9.2 5.8-17.3 14.5-20.3.5-.2.8-.8.6-1.3-.2-.5-.8-.8-1.3-.6-1.5.5-3 1.2-4.4 2.1-.3-1.3-.5-2.6-.5-4 0-8.6 7-15.7 15.7-15.7 5.5 0 10.7 3 13.5 7.8.3.5.9.6 1.4.4.5-.3.6-.9.4-1.4-.2-.4-.5-.8-.8-1.2 1.6-.8 3.4-1.2 5.3-1.2 5.4 0 10.1 3.5 11.8 8.5L921.1 509c-.4-.6-.8-1.1-1.2-1.6 1.7-2.8 2.6-5.9 2.6-9.2 0-.6-.4-1-1-1s-1 .4-1 1c0 2.7-.7 5.3-2 7.7l-1.1-1.1c-.4-.4-1-.3-1.4.1-.4.4-.3 1 .1 1.4 3.1 2.8 5.4 6.4 6.4 10.4.1.4.5.7 1 .7h.3c.5-.1.8-.7.7-1.2-.5-1.9-1.3-3.7-2.2-5.4l24.3-21.5 3 3c-.7 1.1-1.2 2.1-1.4 3-.2 1.2.3 1.9.7 2.3.5.5 1.1.7 1.8.7 1 0 2.2-.5 3.5-1.4l3 3-16.7 18.9c-2.1 0-4.2.4-6.1 1.1-.5.2-.8.8-.6 1.3.2.5.8.8 1.3.6 1.9-.7 3.9-1 5.9-1 9.3 0 17 7.7 17 17.1zm-4.4-43.1s-.1.1-.2.1c-1.2.9-2.1 1.4-2.9 1.4-.2 0-.3-.1-.4-.1-.1-.1-.2-.2-.1-.6.1-.7.6-1.6 1.4-2.7 0 0 0-.1.1-.1 3.8-5 13.7-12.8 16.3-14.3-1.5 2.7-9.2 12.5-14.2 16.3zm1.4 20c0 2.9-1.1 5.6-3 7.7-2.6-1.9-5.7-3.2-9.1-3.6l9.8-11.1c1.5 2 2.3 4.5 2.3 7zm22-5.1c-2.2 2.8-4.3 4.2-5.1 4.5-.1-.4-.1-1.2-.1-1.8 0-2.5 0-6.6-2.6-11.7 3.4-.9 7.6-2.8 12.1-6.2 1 7-2.2 12.5-4.3 15.2zM959 499l-3.3-3.3c6-4.9 13.3-15 14-16.3.3-.5 1.1-2 .2-2.9-.2-.2-.5-.4-1-.4s-1.1.2-1.8.6c-1.7.9-11.5 8.1-16.3 14l-3.3-3.3c-.5-1.5-3.3-12.7 11.4-27.3 16.7-16.7 49.3-26.5 51.9-24.3 2.3 2.6-7.6 35.1-24.3 51.9-14.9 14.6-26 11.8-27.5 11.3z" transform="translate(-646 -329)"/><path class="st1" d="M977.7 456.3c-3.4 3.4-3.4 9 0 12.4 1.7 1.7 3.9 2.6 6.2 2.6 2.2 0 4.5-.9 6.2-2.6 3.4-3.4 3.4-9 0-12.4-3.5-3.4-9-3.4-12.4 0zm10.9 10.9c-1.3 1.3-3 2-4.8 2s-3.5-.7-4.8-2c-1.3-1.3-2-3-2-4.8 0-1.8.7-3.5 2-4.8 1.3-1.3 3-2 4.8-2s3.5.7 4.8 2c1.3 1.3 2 3 2 4.8 0 1.9-.7 3.6-2 4.8zM1034.7 715.9l-18.9 3.3c-2.9.5-5.7-1.4-6.2-4.4l-7.3-41.1c-.2-1.4.1-2.8.9-4 .8-1.2 2.1-2 3.5-2.2l44.7-7.9c2.9-.5 5.7 1.4 6.2 4.4l1.6 8.8c.1.5.6.9 1.2.8.5-.1.9-.6.8-1.2l-1.6-8.8c-.3-1.9-1.4-3.6-3-4.8-1.6-1.1-3.6-1.6-5.5-1.2l-44.7 7.9c-1.9.3-3.6 1.4-4.8 3-1.1 1.6-1.6 3.6-1.2 5.5l7.3 41.1c.6 3.6 3.8 6.1 7.3 6.1.4 0 .9 0 1.3-.1l18.9-3.3c.5-.1.9-.6.8-1.2-.2-.4-.7-.8-1.3-.7z" transform="translate(-646 -329)"/><path class="st1" d="M1016.4 684.7c1.1-.2 2.1-.8 2.8-1.8.7-1 .9-2.1.7-3.3-.4-2.3-2.6-4-5-3.5-2.4.4-3.9 2.7-3.5 5 .4 2.1 2.2 3.6 4.3 3.6.2.1.4.1.7 0zm-3.1-3.8c-.2-1.3.6-2.5 1.9-2.7h.4c1.1 0 2.1.8 2.3 1.9.1.6 0 1.2-.4 1.8-.4.5-.9.9-1.5 1-1.3.1-2.5-.8-2.7-2zM1051.7 674.1c-.1-.5-.6-.9-1.2-.8l-25.4 4.5c-.5.1-.9.6-.8 1.2.1.5.5.8 1 .8h.2l25.4-4.5c.5-.1.9-.7.8-1.2zM1017.7 696.6c.2 0 .5 0 .8-.1 2.4-.4 3.9-2.7 3.5-5-.4-2.3-2.6-4-5-3.5-1.1.2-2.1.8-2.8 1.8-.7 1-.9 2.1-.7 3.3.3 2 2.1 3.5 4.2 3.5zm-1.9-5.7c.4-.5.9-.9 1.5-1h.4c1.1 0 2.1.8 2.3 1.9.2 1.3-.6 2.5-1.9 2.7-1.3.2-2.5-.6-2.7-1.9-.1-.5 0-1.1.4-1.7zM1027.2 689.6c-.5.1-.9.6-.8 1.2.1.5.5.8 1 .8h.2l7.4-1.3c.5-.1.9-.6.8-1.2-.1-.5-.6-.9-1.2-.8l-7.4 1.3zM1019.8 708.5c.3 0 .5 0 .8-.1 1.1-.2 2.1-.8 2.8-1.8.7-1 .9-2.1.7-3.3-.4-2.3-2.6-4-5-3.5-1.1.2-2.1.8-2.8 1.8-.7 1-.9 2.1-.7 3.3.3 2.1 2.1 3.6 4.2 3.6zm-1.9-5.7c.4-.5.9-.9 1.5-1h.4c1.1 0 2.1.8 2.3 1.9.1.6 0 1.2-.4 1.8s-.9.9-1.5 1c-1.3.2-2.5-.6-2.7-1.9-.1-.7 0-1.3.4-1.8zM1036.6 700.1l-7.4 1.3c-.5.1-.9.6-.8 1.2.1.5.5.8 1 .8h.2l7.4-1.3c.5-.1.9-.6.8-1.2s-.6-.9-1.2-.8zM1107.1 722.5l-7.3-41.1c-.6-3.5-3.7-6.1-7.3-6.1-.4 0-.9 0-1.3.1l-44.7 7.9c-4 .7-6.7 4.5-6 8.6l7.3 41.1c.6 3.5 3.7 6.1 7.3 6.1.4 0 .9 0 1.3-.1l44.7-7.9c4-.8 6.7-4.6 6-8.6zm-6.3 6.5l-44.7 7.9c-.3.1-.6.1-.9.1-2.6 0-4.8-1.9-5.3-4.5l-7.3-41.1c-.5-2.9 1.4-5.7 4.4-6.2l44.7-7.9c.3-.1.6-.1.9-.1 2.6 0 4.8 1.9 5.3 4.5l7.3 41.1c.4 2.9-1.5 5.7-4.4 6.2zM867.1 615.5l-8.4-1.7.5-2.5c.3-1.4-.6-2.9-2.1-3.2-1.4-.3-2.9.7-3.2 2.1l-.5 2.5-15.5-3.2.5-2.5c.3-1.4-.6-2.9-2.1-3.2-1.4-.3-2.9.7-3.2 2.1l-.5 2.5-8.4-1.7c-.5-.1-1.1.2-1.2.8l-2 9.9-6.7 32.9c-.1.5.2 1.1.8 1.2l34.5 7.1h.5c.1 0 .2-.1.3-.1l10-6.6c.1-.1.2-.2.3-.2 0 0 0-.1.1-.1 0-.1.1-.2.1-.2v-.1l5-24.6 2-9.9c.1-.7-.2-1.2-.8-1.3zm-10.5-5.4h.1c.4.1.6.4.5.8l-1.1 5.3c-.1.4-.4.6-.8.5-.4-.1-.6-.4-.5-.8l.4-1.8.7-3.5c.1-.3.4-.5.7-.5zm-20.7-4.3h.1c.4.1.6.4.5.8l-.7 3.5-.4 1.8c-.1.4-.4.6-.8.5-.2 0-.3-.1-.4-.3-.1-.2-.1-.3-.1-.5l.4-1.8.7-3.5c.1-.3.4-.5.7-.5zm-11 3.1l7.4 1.5-.2.8c-.1.7 0 1.4.4 2 .4.6 1 1 1.7 1.1.2 0 .4.1.5.1 1.3 0 2.4-.9 2.6-2.1l.2-.8 15.5 3.2-.2.8c-.3 1.4.6 2.9 2.1 3.2.2 0 .4.1.5.1 1.3 0 2.4-.9 2.6-2.1l.2-.8 7.4 1.5-1.6 7.9-15.6-3.2-25.2-5.2 1.7-8zm-2 9.8l20.4 4.2 20.4 4.2-4.6 22.6-7.3-1.5c-.5-.1-1.1.2-1.2.8l-1.5 7.3-32.5-6.7 6.3-30.9zm28.4 36.7l1-4.9 4.9 1-5.9 3.9z" transform="translate(-646 -329)"/><path class="st1" d="M830.9 630.8l20.7 4.2h.2c.5 0 .9-.3 1-.8.1-.5-.2-1.1-.8-1.2l-20.7-4.2c-.5-.1-1.1.2-1.2.8-.1.6.2 1.1.8 1.2zM829.6 637.3l20.7 4.2h.2c.5 0 .9-.3 1-.8.1-.5-.2-1.1-.8-1.2l-20.7-4.2c-.5-.1-1.1.2-1.2.8-.1.5.2 1 .8 1.2zM839 643.8l-10.4-2.1c-.5-.1-1.1.2-1.2.8-.1.5.2 1.1.8 1.2l10.4 2.1h.2c.5 0 .9-.3 1-.8.1-.5-.2-1.1-.8-1.2zM820.7 472.9c-1.4-9.2-9.4-16.2-18.7-16.2-.9 0-1.8.1-2.8.2-10.3 1.5-17.5 11.1-16 21.4 1.4 9.2 9.4 16.2 18.7 16.2.9 0 1.8-.1 2.8-.2 10.3-1.5 17.5-11.1 16-21.4zM802 492.5c-8.3 0-15.5-6.2-16.7-14.4-1.4-9.2 5-17.8 14.3-19.2.8-.1 1.7-.2 2.5-.2 8.3 0 15.5 6.2 16.7 14.4 1.4 9.2-5 17.8-14.3 19.2-.9.1-1.7.2-2.5.2z" transform="translate(-646 -329)"/><path class="st1" d="M811.4 477.8c-.5-.2-1.1 0-1.3.5-1.3 2.6-3.9 4.5-7 4.9-3.1.5-6.2-.6-8.1-2.7-.4-.4-1-.4-1.4-.1-.4.4-.4 1-.1 1.4 2 2.2 5 3.5 8.1 3.5.6 0 1.2 0 1.8-.1 3.8-.6 7-2.8 8.5-6.1.2-.5 0-1.1-.5-1.3zM793.9 476.7c.6 0 1-.5.9-1.1 0-.1-.1-2.6 1.9-2.9 1.5-.2 1.9 2.3 1.9 2.3.1.5.6.9 1.1.8.5-.1.9-.6.8-1.1-.2-1.5-1.4-4.4-4.1-4-3 .4-3.7 3.5-3.6 5 .1.6.5 1 1.1 1-.1 0 0 0 0 0zM804.1 475.2h.1c.5-.1.9-.6.8-1.1 0 0-.3-2.5 1.1-2.7 1.9-.3 2.6 2 2.6 2.3.1.5.7.9 1.2.7.5-.1.9-.7.7-1.2-.4-1.5-1.8-4.2-4.9-3.8-2.7.4-3 3.4-2.8 5 .3.5.7.8 1.2.8zM1045 543.8c-.2.2-.3.5-.3.9 0 .3.2.6.5.7 1.9 1 4.1 1.5 6.3 1.5 3.7 0 7.2-1.5 9.9-4.1 2.6-2.6 4.1-6.1 4.1-9.9.4-4.6.5-4.6 6.7-10.8l16-16c1.3-1.3 2-3.1 2-4.9 0-1.9-.7-3.6-2-4.9-1.3-1.3-3.1-2-4.9-2-1.9 0-3.6.7-4.9 2l-16 16c-6.3 6.3-6.3 6.3-10.8 6.7-3.7 0-7.2 1.5-9.9 4.1-4.3 4.3-5.3 10.8-2.6 16.2.1.3.4.5.7.5.3.1.6-.1.9-.3l9.3-9.3c.1-.1.4-.2.6-.2l3.1.6c.1 0 .2.1.2.2l.6 3.1c0 .2-.1.5-.2.6l-9.3 9.3zm11.4-10.2l-.6-3.1c-.2-.9-.9-1.7-1.8-1.8l-3.1-.6c-.8-.1-1.8.2-2.4.7l-8.2 8.2c-1.6-4.3-.6-9.2 2.8-12.6 2.3-2.3 5.3-3.5 8.4-3.5h.2c5.3-.5 5.6-.8 12.1-7.3l16-16c.9-.9 2.2-1.4 3.5-1.4 1.3 0 2.6.5 3.5 1.4s1.4 2.2 1.4 3.5-.5 2.6-1.4 3.5l-16 16c-6.5 6.5-6.8 6.8-7.3 12.1v.1c0 3.2-1.2 6.2-3.5 8.5s-5.3 3.5-8.4 3.5c-1.4 0-2.8-.2-4.1-.7l8.2-8.2c.6-.5.9-1.5.7-2.3z" transform="translate(-646 -329)"/><path class="st1" d="M1060.5 527.1c.8 0 1.6-.3 2.2-.9l22.4-22.4c1.2-1.2 1.2-3.2 0-4.4-1.2-1.2-3.2-1.2-4.4 0l-22.4 22.4c-.6.6-.9 1.4-.9 2.2 0 .8.3 1.6.9 2.2.6.6 1.4.9 2.2.9zm-.8-3.8l22.4-22.4c.2-.2.5-.3.8-.3s.6.1.8.3c.4.4.4 1.1 0 1.5l-22.4 22.4c-.4.4-1.1.4-1.5 0-.2-.2-.3-.5-.3-.8s0-.5.2-.7zM964 592c-3.6 0-7 1.5-9.5 4.3-2.4-1.8-5.1-2.7-7.9-2.7-3.4 0-6.7 1.4-8.9 3.9-2.3 2.5-3.4 6-3.1 9.8 1 11.9 15.6 19.5 22.4 21.3h.3c.1 0 .3 0 .4-.1 6.4-3 19.4-13 18.4-24.9-.8-8-6.8-11.6-12.1-11.6zm-6.8 34.5c-6.3-1.8-19.7-8.9-20.6-19.5-.4-4.1 1.2-6.7 2.6-8.2 1.9-2 4.6-3.2 7.4-3.2 2.7 0 5.2 1 7.4 2.9.2.2.5.3.7.2.3 0 .5-.2.7-.4 2.2-2.7 5.3-4.3 8.6-4.3 4.4 0 9.5 3 10 9.7 1 10.6-10.9 19.9-16.8 22.8zM754.3 690c-.1-.2-.4-.4-.6-.4l-.5-.1.4-2.2.5.1h.2c.5 0 .9-.3 1-.8l5.8-29c.1-.3 0-.5-.2-.8-.1-.2-.4-.4-.6-.4l-5-1 .9-4.5c1.1-5.7 0-11.6-3.3-16.4-3.3-4.9-8.2-8.2-13.9-9.3-11.8-2.4-23.4 5.4-25.7 17.2l-.9 4.5-5-1c-.5-.1-1.1.2-1.2.8l-5.8 29c-.1.3 0 .5.2.8.1.2.4.4.6.4l.5.1-.4 2.2-.5-.1c-.3-.1-.5 0-.8.1-.2.1-.4.4-.4.6l-.6 3.3c-.3 1.5.7 3 2.2 3.3l49.5 9.8c.2 0 .4.1.5.1 1.3 0 2.5-1 2.8-2.3l.6-3.3c-.1-.2-.2-.5-.3-.7zm-39.2-47.3c1-5.2 4-9.7 8.5-12.7 4.4-3 9.7-4 14.9-3 5.2 1 9.7 4 12.7 8.5 3 4.4 4 9.7 3 14.9l-.9 4.5-4.4-.9.9-4.5c.8-4 0-8.1-2.3-11.6-2.3-3.4-5.8-5.8-9.8-6.6-4-.8-8.1 0-11.6 2.3-3.4 2.3-5.8 5.8-6.6 9.8l-.9 4.5-4.4-.9.9-4.3zm5.4 5.8l.9-4.5c.7-3.5 2.7-6.5 5.7-8.5s6.6-2.7 10.1-2c7.3 1.4 12 8.5 10.6 15.8l-.9 4.5-26.4-5.3zm-12.7-.5l39.7 7.9 6.4 1.3 5 1-5.4 27.1-25.5-5.1-25-5-.5-.1 5.3-27.1zm-4.8 31.5l.4-2.2 24.1 4.8 24.1 4.8-.4 2.2-24.1-4.8-24.1-4.8zm48.8 14.1c-.1.4-.5.7-1 .6l-49.5-9.8c-.4-.1-.7-.5-.6-1l.5-2.3 25.5 5.1 25 5 .5.1-.4 2.3z" transform="translate(-646 -329)"/><path class="st1" d="M724.7 675.3l8.1 1.6h.2c.2 0 .4-.1.6-.2.2-.2.4-.5.4-.8l.1-7c1.7-.9 3-2.5 3.4-4.4.3-1.7 0-3.3-.9-4.7a6.2 6.2 0 0 0-4-2.7c-.4-.1-.8-.1-1.2-.1-3 0-5.6 2.1-6.2 5.1-.4 1.9.1 3.9 1.4 5.4L724 674c-.1.3-.1.6.1.8 0 .2.3.4.6.5zm3.9-7.8c.2-.4 0-.8-.2-1.1-1.1-1-1.6-2.5-1.3-4 .4-2 2.2-3.5 4.2-3.5.3 0 .6 0 .8.1 1.1.2 2.1.9 2.7 1.8.6 1 .9 2.1.6 3.2-.3 1.5-1.3 2.7-2.7 3.2-.4.1-.6.5-.6.9l-.1 6.5-5.8-1.1 2.4-6zM875.1 361.8c-.3.4-.6.8-.8 1.2-.4 1-.4 2.1 0 3.1l14.1 32.6c.6 1.3 2.1 2.2 3.8 2.2.6 0 1.2-.1 1.8-.3l59-21.6c2.3-.8 3.6-3.1 3.1-5.1L946 340c-.4-1.6-1.7-2.6-3.4-2.9l-1.3-4.4c-.1-.3-.3-.5-.5-.6-.2-.1-.5-.1-.8 0l-.7.2-.7-2.3c-.1-.3-.3-.5-.5-.6-.2-.1-.5-.1-.8 0l-1.1.4c-1.2-1.7-3.3-2.5-5.1-1.9l-22 8.1c-1.1-1.7-3.2-2.5-5-1.9L877 344c-2.1.8-3.3 3.3-2.5 5.6l.8 2.5-1 .4c-.3.1-.5.3-.6.5-.1.3-.1.5 0 .8l1 2.2-.7.2c-.3.1-.5.3-.6.5-.1.3-.1.5 0 .8l1.7 4.3zm68.9-21.3l10.2 34c.3 1-.6 2.2-1.9 2.7l-59 21.6c-1.3.5-2.7 0-3.1-.8l-14.1-32.6c-.3-.6-.2-1.2 0-1.5.3-.6.8-1.2 1.6-1.4l63.2-23.1c.3-.1.7-.2 1-.2 1.1-.1 1.9.4 2.1 1.3zm-3.5-3.2c-.1 0-.2 0-.3.1L877 360.5c-.1 0-.2.1-.3.1l-1.3-2.8 64.2-23.5.9 3zm-64.2 11.8c-.4-1.3.2-2.8 1.3-3.2l27.1-9.9c1.1-.4 2.4.3 2.9 1.6.2.5.8.8 1.3.6l22.9-8.4c.8-.3 1.8 0 2.5.7l-57.3 21-.7-2.4zm-.5 5l61.2-22.4.4 1.4-61 22.3-.6-1.3z" transform="translate(-646 -329)"/><path class="st1" d="M909.2 380l-15.9 5.8c-.5.2-.8.8-.6 1.3.1.4.5.7.9.7.1 0 .2 0 .3-.1l15.9-5.8c.5-.2.8-.8.6-1.3-.1-.5-.7-.8-1.2-.6zM905.5 386l-10.4 3.8c-.5.2-.8.8-.6 1.3.1.4.5.7.9.7.1 0 .2 0 .3-.1l10.4-3.8c.5-.2.8-.8.6-1.3-.1-.5-.6-.7-1.2-.6zM1057.6 284.1l1.6 8.8c.1.5.6.9 1.2.8.5-.1.9-.6.8-1.2l-1.6-8.8c-.7-4-4.5-6.7-8.6-6l-44.7 7.9c-4 .7-6.7 4.5-6 8.6l7.3 41.1c.6 3.6 3.8 6.1 7.3 6.1.4 0 .9 0 1.3-.1l18.9-3.3c.5-.1.9-.6.8-1.2-.1-.5-.6-.9-1.2-.8l-18.9 3.3c-1.4.3-2.8-.1-4-.9-1.2-.8-2-2.1-2.2-3.5l-7.3-41.1c-.5-2.9 1.4-5.7 4.4-6.2l44.7-7.9c2.9-.5 5.7 1.4 6.2 4.4z" transform="translate(-646 -329)"/><path class="st1" d="M1041.8 306.3c-1.1 1.6-1.6 3.6-1.2 5.5l7.3 41.1c.6 3.5 3.7 6.1 7.3 6.1.4 0 .9 0 1.3-.1l44.7-7.9c1.9-.3 3.6-1.4 4.8-3 1.1-1.6 1.6-3.6 1.2-5.5l-7.3-41.1c-.6-3.5-3.7-6.1-7.3-6.1-.4 0-.9 0-1.3.1l-44.7 7.9c-1.9.3-3.6 1.4-4.8 3zm49.8-9c.3-.1.6-.1.9-.1 2.6 0 4.8 1.9 5.3 4.5l7.3 41.1c.2 1.4-.1 2.8-.9 4-.8 1.2-2.1 2-3.5 2.2l-44.7 7.9c-.3.1-.6.1-.9.1-2.6 0-4.8-1.9-5.3-4.5l-7.3-41.1c-.2-1.4.1-2.8.9-4 .8-1.2 2.1-2 3.5-2.2l44.7-7.9zM593.8 415.7c-.4 0-.8.3-.9.7-.1.4 0 .8.4 1.1 4.8 3.5 10.5 3.1 14.1 1.7 2.4 1.2 4.9 2 7.6 2.2l10.9.9h.1c.5 0 1-.4 1-.9s-.4-1-.9-1.1l-10.9-.9c-2.6-.2-5-1-7.3-2.2-.3-.1-.6-.2-.9 0-2.5 1.1-6.5 1.6-10.2 0 2.3-.7 4-2 5.3-3.9.2-.4.2-.8 0-1.1-2.7-3.6-4-8.1-3.7-12.7.9-10.1 9.8-17.7 20-16.8l19.2 1.7c4.9.4 9.4 2.7 12.5 6.5 3.2 3.8 4.7 8.6 4.3 13.5 0 .6.4 1 .9 1.1.5.1 1-.4 1.1-.9.5-5.4-1.2-10.7-4.7-14.9-3.5-4.2-8.4-6.7-13.9-7.2l-19.2-1.7c-11.2-1-21.2 7.4-22.1 18.6-.4 4.8.9 9.5 3.6 13.5-1.5 1.7-3.5 2.6-6.3 2.8zM653.2 426c-.4-.4-1-.5-1.4-.1-.4.4-.5 1-.1 1.4l6.2 7.4-7.4 6.2c-.4.4-.5 1-.1 1.4.2.2.5.4.8.4.2 0 .5-.1.6-.2l8.1-6.8c.4-.4.5-1 .1-1.4l-6.8-8.3zM675.8 444.7c.5 0 1-.4 1-.9 0-.6-.4-1-.9-1.1l-11.9-1c-.6-.1-1 .4-1.1.9 0 .5.4 1 .9 1.1l12 1c-.1 0 0 0 0 0z" transform="translate(-646 -329)"/><path class="st1" d="M684 460.5c1.6 1 5.2 2.8 9.9 2.8 2.7 0 5.4-.6 7.9-1.8.4-.2.6-.6.6-1s-.4-.8-.8-.9c-3.6-.8-6-2.5-7.3-5.3 4.3-4.3 7-9.9 7.5-15.9.6-6.8-1.5-13.4-5.9-18.6-4.4-5.2-10.5-8.4-17.3-9l-24.2-2.1c-.7-.1-1.5-.1-2.2-.1-13.1 0-24.2 10.2-25.4 23.3-.6 6.8 1.5 13.4 5.9 18.6 4.4 5.2 10.5 8.4 17.3 9l24.2 2.1c3.2.3 6.6-.1 9.8-1.1zm-50-11.3c-4-4.8-6-10.9-5.4-17.2 1-12 11.3-21.5 23.4-21.5.7 0 1.4 0 2.1.1l24.2 2.1c6.3.5 11.9 3.5 16 8.3 4 4.8 6 10.9 5.4 17.2-.5 5.8-3.1 11.1-7.4 15.1-.3.3-.4.7-.2 1.1 1.2 2.8 3.3 4.9 6.2 6.2-1.4.4-2.9.6-4.4.6-4.7 0-8.2-2.1-9.2-2.7-.2-.1-.4-.2-.6-.2-.1 0-.2 0-.3.1-3.1 1.1-6.4 1.5-9.6 1.2l-24.2-2.1c-6.3-.5-11.9-3.5-16-8.3zM729.9 534.7c-.8 0-1.6.1-2.4.3-2.5.6-4.6 2.2-5.9 4.4-1.3 2.2-1.7 4.8-1.1 7.3 1.1 4.3 4.9 7.3 9.4 7.3.8 0 1.6-.1 2.4-.3 2.5-.6 4.6-2.2 5.9-4.4 1.3-2.2 1.7-4.8 1.1-7.3-1.2-4.3-5-7.3-9.4-7.3zm6.5 13.6c-1 1.8-2.7 3-4.7 3.5-.6.2-1.3.2-1.9.2-3.5 0-6.6-2.4-7.4-5.8-.5-2-.2-4 .8-5.8 1-1.8 2.7-3 4.7-3.5.6-.2 1.3-.2 1.9-.2 3.5 0 6.6 2.4 7.4 5.8.6 1.9.3 4-.8 5.8z" transform="translate(-646 -329)"/><path class="st1" d="M756 543.6c.4-.2.7-.7.5-1.2l-2.2-8.8c-.1-.5-.5-.8-1-.8l-5.7.3c-.5-.9-1.1-1.7-1.8-2.5l2-5.5c.2-.5 0-1-.4-1.2l-7.8-4.6c-.4-.2-.9-.2-1.3.2l-3.8 4.2c-1-.2-2-.4-3-.5l-2.5-5.3c-.2-.4-.7-.7-1.2-.5l-8.8 2.2c-.5.1-.8.5-.8 1l.3 5.7c-.9.5-1.7 1.1-2.5 1.8l-5.5-2c-.4-.2-1 0-1.2.4l-4.6 7.8c-.2.4-.2.9.2 1.3l4.2 3.8c-.2 1-.4 2-.5 3l-5.3 2.5c-.4.2-.7.7-.5 1.2l2.2 8.8c.1.5.6.8 1 .8l5.7-.3c.5.9 1.1 1.7 1.8 2.5l-2 5.5c-.2.5 0 1 .4 1.2l7.8 4.6c.4.2.9.2 1.3-.2l3.8-4.2c1 .2 2 .4 3 .5l2.5 5.3c.2.4.5.6.9.6h.2l8.8-2.2c.5-.1.8-.5.8-1l-.3-5.7c.9-.5 1.7-1.1 2.5-1.8l5.5 2c.5.2 1 0 1.2-.4l4.6-7.8c.2-.4.2-.9-.2-1.3l-4.2-3.8c.2-1 .4-2 .5-3l5.4-2.6zm-7.5 6.5l4.1 3.6-3.8 6.3-5.2-1.9c-.3-.1-.7-.1-1 .2-1 .9-2 1.6-3.1 2.3-.3.2-.5.5-.5.9l.3 5.4-7.1 1.8-2.4-5c-.2-.3-.5-.6-.9-.6-1.3-.1-2.6-.3-3.8-.6h-.3c-.3 0-.6.1-.7.3l-3.6 4.1-6.3-3.8 1.9-5.2c.1-.3.1-.7-.2-1-.9-1-1.6-2-2.3-3.1-.2-.3-.5-.5-.9-.5l-5.4.3-1.8-7.1 5-2.4c.3-.2.6-.5.6-.9.1-1.3.3-2.6.6-3.8.1-.4 0-.8-.3-1l-4.1-3.6 3.8-6.3 5.2 1.9c.3.1.7.1 1-.2.9-.9 2-1.6 3.1-2.3.3-.2.5-.5.5-.9l-.3-5.4 7.1-1.8 2.4 5c.2.3.5.6.9.6 1.3.1 2.6.3 3.8.6.4.1.8 0 1-.3l3.6-4.1 6.3 3.8-1.9 5.2c-.1.3-.1.7.2 1 .9 1 1.6 2 2.3 3.1.2.3.5.5.9.5l5.4-.3 1.8 7.1-5 2.4c-.3.2-.6.5-.6.9-.1 1.3-.3 2.6-.6 3.8-.1.4 0 .8.3 1zM699.1 562.7c-2.9-.5-5.5 1.5-5.9 4.3-.2 1.4.1 2.7.9 3.8s2 1.8 3.4 2.1c.3 0 .5.1.8.1 2.6 0 4.7-1.8 5.1-4.4.2-1.4-.1-2.7-.9-3.8-.9-1.2-2.1-1.9-3.4-2.1zm2.3 5.6c-.3 1.7-1.9 2.9-3.6 2.6-.8-.1-1.6-.6-2.1-1.3s-.7-1.5-.6-2.4c.2-1.5 1.6-2.7 3.1-2.7h.5c.8.1 1.6.6 2.1 1.3.5.8.7 1.6.6 2.5z" transform="translate(-646 -329)"/><path class="st1" d="M710 572.9c.5 0 .9-.4 1-.8l.7-4.3c.1-.5-.2-.9-.6-1.1l-2.3-.8c-.1-.3-.1-.6-.2-.9l1.7-1.8c.3-.4.4-.9.1-1.3l-2.6-3.5c-.3-.4-.8-.5-1.2-.3l-2.2 1c-.3-.2-.5-.3-.8-.5l-.1-2.5c0-.5-.4-.9-.8-1l-4.3-.7c-.5-.1-.9.2-1.1.6l-.8 2.3c-.3.1-.6.1-.9.2l-1.8-1.7c-.4-.3-.9-.4-1.3-.1l-3.5 2.6c-.4.3-.5.8-.3 1.2l1 2.2c-.2.3-.3.5-.5.8l-2.5.1c-.5 0-.9.4-1 .8l-.7 4.3c-.1.5.2.9.6 1.1l2.3.8c.1.3.1.6.2.9l-1.7 1.8c-.3.4-.4.9-.1 1.3l2.6 3.5c.3.4.8.5 1.2.3l2.2-1c.3.2.5.3.8.5l.1 2.5c0 .5.4.9.8 1l4.3.7h.2c.4 0 .8-.3.9-.7l.8-2.3c.3-.1.6-.1.9-.2l1.8 1.7c.3.3.9.4 1.3.1l3.5-2.6c.4-.3.5-.8.3-1.2l-1-2.2c.2-.3.3-.5.5-.8h2.5zm-3.2-1.9c-.4 0-.7.2-.9.6l-.9 1.5c-.2.3-.3.7-.1 1l.9 2-2.2 1.6-1.6-1.5c-.3-.3-.7-.3-1-.2-.5.2-1.1.3-1.7.4-.4 0-.7.3-.8.7l-.7 2.1-2.7-.4-.1-2.2c0-.4-.2-.7-.6-.9l-1.5-.9c-.3-.2-.7-.3-1-.1l-2 .9-1.6-2.2 1.5-1.6c.3-.3.3-.7.2-1-.2-.5-.3-1.1-.4-1.7 0-.4-.3-.7-.7-.8l-2.1-.7.4-2.7 2.2-.1c.4 0 .7-.2.9-.6l.9-1.5c.2-.3.3-.7.1-1l-.9-2 2.2-1.6 1.6 1.5c.3.3.7.3 1 .2.5-.2 1.1-.3 1.7-.4.4 0 .7-.3.8-.7l.7-2.1 2.7.4.1 2.2c0 .4.2.7.6.9l1.5.9c.3.2.7.3 1 .1l2-.9 1.6 2.2-1.5 1.6c-.3.3-.3.7-.2 1 .2.5.3 1.1.4 1.7 0 .4.3.7.7.8l2.1.7-.4 2.7-2.2.1zM606 647.8c.1.3.2.5.4.6.2.1.3.2.5.2h.2l15.3-3.5c1.6 2.1 4.1 3.2 6.6 3.2.6 0 1.3-.1 1.9-.2 3.2-.7 5.6-3.3 6.3-6.5l15.3-3.5c.3-.1.5-.2.6-.4.1-.2.2-.5.1-.8l-1.9-8.3c-.1-.3-.2-.5-.4-.6-.2-.1-.5-.2-.8-.1-.4.1-.9.2-1.3.2-2.8 0-5.2-1.9-5.8-4.6l-1.3-5.6c-.1-.5-.7-.9-1.2-.7h-.2l-.5-2.3h.2c.5-.1.9-.7.7-1.2l-1.8-7.6c-1.8-7.9-8.8-13.4-16.9-13.4-1.3 0-2.6.2-3.9.5-9.3 2.2-15.1 11.5-13 20.8l1.8 7.6c.1.5.5.8 1 .8h.4l.5 2.3h-.2c-.3.1-.5.2-.6.4-.1.2-.2.5-.1.8l1.3 5.6c.4 1.5.1 3.1-.7 4.5-.8 1.3-2.2 2.3-3.7 2.6-.5.1-.9.7-.7 1.2l1.9 8zm24.5-1.7c-2.1.5-4.3-.2-5.8-1.6l10.4-2.4c-.8 1.9-2.5 3.5-4.6 4zm-23.3-32.9c-1.9-8.2 3.2-16.5 11.5-18.4 1.1-.3 2.3-.4 3.5-.4 7.2 0 13.3 4.9 14.9 11.9l1.5 6.6h-.2l-29.5 6.9h-.2l-1.5-6.6zm3.1 8.4l27.6-6.4.5 2.3-27.6 6.4-.5-2.3zm.9 9.1l-1.1-4.6h.2l26.6-6.2 3.2-.7 1.1 4.6c.8 3.6 4 6.1 7.7 6.1h.8l1.5 6.5-15 3.5-28.4 6.6-1.5-6.5c3.6-1.5 5.8-5.4 4.9-9.3zM754.8 399.3c-.4.9-.2 1.8.4 2.4.4.4.9.6 1.5.6.3 0 .6-.1.9-.2.3-.1 28.1-11.1 29.9-11.8.4-.1.8-.3 1.1-.7.9-.9 1.5-2.7-.4-6.4-.7-1.4-1.6-2.8-2.8-4.3 7.9-5.6 19.8-12.4 25.5-8.3.5.3 1.1.2 1.4-.2.3-.5.2-1.1-.2-1.4-7.2-5-20.4 3-27.9 8.4-.7-.8-1.4-1.6-2.2-2.4-1.3-1.3-2.6-2.4-3.8-3.4 4.3-6.5 6.1-11.7 5.2-15.5-.6-2.7-2.5-3.7-2.6-3.7-.5-.2-1.1 0-1.3.5-.2.5 0 1.1.4 1.3 0 0 1.1.6 1.5 2.5.5 2.3-.1 6.5-4.9 13.7-2.7-1.8-5.2-2.9-7-2.9-.9 0-1.7.3-2.2.8-.3.3-.5.7-.7 1.2l-11.8 29.8zm2 .9l-.2.1v-.3l10.5-26.5c.2.4.3.8.5 1.2 1.3 2.6 3.5 5.5 6.3 8.3 3.3 3.3 6.7 5.7 9.5 6.8-7.7 2.9-25.7 10.1-26.6 10.4zm12.7-30.8c1.2 0 3.3.8 5.8 2.5-.8 1.2-1.8 2.4-2.8 3.7-.3.4-.3 1.1.2 1.4.2.1.4.2.6.2.3 0 .6-.1.8-.4 1-1.3 2-2.6 2.8-3.8 1.1.9 2.3 1.9 3.6 3.2.7.7 1.4 1.4 2 2.2-2.2 1.7-3.7 2.9-3.9 3.1-.4.4-.5 1-.1 1.4.2.2.5.3.8.3.2 0 .5-.1.7-.2 1-.9 2.3-1.9 3.8-3.1 1.1 1.4 2 2.8 2.6 4 1.1 2.2 1.2 3.7.8 4.1-.2.2-.6.2-.8.2-2 0-6.3-2.2-11-6.9-2.6-2.6-4.7-5.3-5.9-7.8-1.1-2.2-1.2-3.7-.8-4.1h.8z" transform="translate(-646 -329)"/><path class="st1" d="M811.4 345c-.4.3-.5 1-.2 1.4.9 1.2 2.4 4 1.4 5.1-.6.7-1.9.4-3.7-.1-1.4-.4-2.8-.7-3.8-.1-1.6 1-.3 3.1 1.1 5.3.6.9 1.6 2.5 1.7 3.2-.8-.1-2.8-1.5-3.9-2.2-2.5-1.7-4.3-2.9-5.5-2-1.7 1.1-1.5 6-1.2 8.8.1.5.5.9 1 .9h.1c.5-.1.9-.5.9-1.1-.3-3.1-.2-6.2.2-6.9.7.1 2.3 1.3 3.4 2 2.6 1.8 4.9 3.3 6.4 2.1 1.5-1.2.1-3.5-1.4-5.9-.5-.8-1.2-2-1.4-2.6.5 0 1.4.2 1.9.4 1.8.5 4.1 1.1 5.7-.5 2.4-2.6-.9-7.1-1.2-7.6-.4-.4-1-.5-1.5-.2zM755.2 347.8c-.6 0-1 .5-1 1 0 .6.5 1 1 1 1.5-.1 4.6.3 5 1.7.2.9-.8 1.8-2.1 3-1.1 1-2.2 1.9-2.2 3.1-.1 1.9 2.4 2 5 2.1 1.1.1 3 .1 3.6.4-.6.6-2.8 1.5-4 1.9-2.8 1.1-4.8 1.9-4.8 3.4-.1 2 4.1 4.6 6.6 6 .2.1.3.1.5.1.4 0 .7-.2.9-.5.3-.5.1-1.1-.4-1.4-2.7-1.5-5.2-3.3-5.5-4.1.5-.5 2.4-1.2 3.5-1.7 3-1.2 5.5-2.2 5.4-4-.2-1.9-2.8-2.1-5.6-2.2-.9 0-2.3-.1-3-.3.3-.4 1-1 1.4-1.4 1.5-1.2 3.3-2.8 2.8-4.9-.8-3.3-6.4-3.2-7.1-3.2zM774.6 353.6c.3 0 .5-.1.7-.3.2-.2.3-.4.3-.7 0-.3-.1-.5-.3-.7-.4-.4-1-.4-1.4 0-.2.2-.3.4-.3.7 0 .3.1.5.3.7.1.2.4.3.7.3zM788.7 352.5c-.4-.4-1-.4-1.4 0-.2.2-.3.4-.3.7 0 .3.1.5.3.7.2.2.4.3.7.3.3 0 .5-.1.7-.3.2-.2.3-.4.3-.7 0-.2-.1-.5-.3-.7zM802.2 348.5c.2-.2.3-.4.3-.7s-.1-.5-.3-.7c-.4-.4-1-.4-1.4 0-.2.2-.3.4-.3.7 0 .3.1.5.3.7.2.2.4.3.7.3.3 0 .6-.1.7-.3zM787.3 359c-.2.2-.3.4-.3.7 0 .3.1.5.3.7.2.2.4.3.7.3.3 0 .5-.1.7-.3.2-.2.3-.4.3-.7 0-.3-.1-.5-.3-.7-.4-.4-1.1-.4-1.4 0zM757.5 379.6c.2-.2.3-.4.3-.7 0-.3-.1-.5-.3-.7-.4-.4-1-.4-1.4 0-.2.2-.3.4-.3.7 0 .3.1.5.3.7.2.2.4.3.7.3.3 0 .6-.1.7-.3zM796.1 389.2c.2-.2.3-.4.3-.7 0-.3-.1-.5-.3-.7-.4-.4-1.1-.4-1.4 0-.2.2-.3.4-.3.7 0 .3.1.5.3.7.2.2.4.3.7.3.3 0 .5-.1.7-.3zM804.4 386.5c.2-.2.3-.4.3-.7 0-.3-.1-.5-.3-.7-.4-.4-1.1-.4-1.4 0-.2.2-.3.4-.3.7 0 .3.1.5.3.7.2.2.5.3.7.3s.5-.1.7-.3zM789.1 397.9c.2-.2.3-.4.3-.7s-.1-.5-.3-.7c-.4-.4-1-.4-1.4 0-.2.2-.3.4-.3.7s.1.5.3.7c.2.2.5.3.7.3.3 0 .5-.1.7-.3zM801 401.6c.2-.2.3-.4.3-.7s-.1-.5-.3-.7c-.4-.4-1-.4-1.4 0-.2.2-.3.4-.3.7s.1.5.3.7c.2.2.4.3.7.3.2 0 .5-.1.7-.3zM766.7 381c-.2.2-.3.4-.3.7 0 .3.1.5.3.7.2.2.5.3.7.3.3 0 .5-.1.7-.3.2-.2.3-.5.3-.7 0-.3-.1-.5-.3-.7-.4-.4-1-.4-1.4 0z" transform="translate(-646 -329)"/></g></g></g></g></svg>